<svg xmlns="http://www.w3.org/2000/svg"  viewBox="0 0 32 32" width="32px" height="32px"><path d="M 15.486328 3.078125 C 15.062325 3.0895073 14.638603 3.1150163 14.214844 3.1542969 C 12.519806 3.311419 10.828382 3.6913461 9.1464844 4.2910156 C 7.8949621 4.7377047 6.9027691 5.7728294 6.5878906 7.1015625 C 5.1833632 13.025182 5.1833632 18.974818 6.5878906 24.898438 C 6.9037176 26.230982 7.9009908 27.264401 9.1523438 27.710938 A 1.0001 1.0001 0 0 0 9.1523438 27.712891 C 13.691873 29.33064 18.308127 29.33064 22.847656 27.712891 A 1.0001 1.0001 0 0 0 22.847656 27.710938 C 24.100434 27.263894 25.097665 26.230571 25.414062 24.898438 C 26.539734 20.150733 26.763552 15.386709 26.083984 10.632812 A 1.0001 1.0001 0 0 0 25.970703 10.292969 C 24.399713 7.4370076 22.106251 5.0984318 19.681641 3.5039062 A 1.0001 1.0001 0 0 0 19.300781 3.3535156 C 18.031103 3.1356535 16.758338 3.043978 15.486328 3.078125 z M 15.486328 5.0800781 C 16.141632 5.0654415 16.797462 5.0955552 17.453125 5.15625 A 1.0001 1.0001 0 0 0 17.388672 5.390625 C 17.076656 7.3478181 17.265265 9.3246153 17.943359 11.261719 A 1.0001 1.0001 0 0 0 18.558594 11.875 C 20.443717 12.534051 22.363752 12.726355 24.269531 12.449219 C 24.671812 16.444375 24.417732 20.433058 23.46875 24.435547 C 23.319149 25.065412 22.823004 25.597169 22.175781 25.828125 C 18.03331 27.304375 13.96669 27.304375 9.8242188 25.828125 C 9.1764101 25.59696 8.68208 25.06766 8.5332031 24.4375 A 1.0001 1.0001 0 0 0 8.5332031 24.435547 C 7.1977305 18.803167 7.1977305 13.196833 8.5332031 7.5644531 C 8.6823246 6.9352332 9.1758817 6.4050922 9.8183594 6.1757812 C 11.353461 5.6284509 12.876975 5.283706 14.398438 5.1425781 C 14.761064 5.1089415 15.123858 5.0881742 15.486328 5.0800781 z M 19.359375 5.7539062 C 21.003169 6.9779328 22.550635 8.5973853 23.734375 10.486328 C 22.397202 10.63626 21.068371 10.496655 19.71875 10.09375 C 19.284407 8.6358961 19.136844 7.2002189 19.359375 5.7539062 z M 10.953125 14.896484 A 1.0001 1.0001 0 0 0 10.599609 16.830078 C 12.789439 17.706447 15.192137 17.904477 17.496094 17.398438 A 1.0001 1.0001 0 1 0 17.068359 15.445312 C 15.156316 15.865274 13.159968 15.700287 11.341797 14.972656 A 1.0001 1.0001 0 0 0 10.953125 14.896484 z M 10.939453 19.996094 A 1.0001 1.0001 0 0 0 10.646484 21.957031 C 14.134961 23.02992 17.865039 23.02992 21.353516 21.957031 A 1.0002221 1.0002221 0 1 0 20.765625 20.044922 C 17.660101 21.000033 14.339899 21.000033 11.234375 20.044922 A 1.0001 1.0001 0 0 0 10.939453 19.996094 z"/></svg>