<svg xmlns="http://www.w3.org/2000/svg" xmlns:xlink="http://www.w3.org/1999/xlink" width="18.473" height="15.114" viewBox="0 0 18.473 15.114">
  <defs>
    <clipPath id="clip-path">
      <rect id="Rectangle_766" data-name="Rectangle 766" width="18.473" height="15.114" transform="translate(0.653 0.368)" fill="#727398"/>
    </clipPath>
  </defs>
  <g id="fi-ss-envelope" transform="translate(-0.653 -0.368)" clip-path="url(#clip-path)">
    <path id="Path_1117" data-name="Path 1117" d="M8.2,8.067a2.693,2.693,0,0,0,3.267,0L18.9,1.984a2.017,2.017,0,0,0-.848-.862A2.684,2.684,0,0,0,16.763.8H2.909a2.684,2.684,0,0,0-1.293.326,2.017,2.017,0,0,0-.848.862Z" transform="translate(0.054 0.202)" fill="#727398"/>
    <path id="Path_1118" data-name="Path 1118" d="M12.612,8.05a4.328,4.328,0,0,1-2.722.921A4.328,4.328,0,0,1,7.168,8.05L.653,2.722V13.743H19.126V2.722Z" transform="translate(0 1.11)" fill="#727398"/>
  </g>
</svg>
