<svg xmlns="http://www.w3.org/2000/svg" width="18.961" height="23.732" viewBox="0 0 18.961 23.732">
  <g id="Group_1049" data-name="Group 1049" transform="translate(-389.039 -40)">
    <g id="Icon_ionic-ios-notifications-outline" data-name="Icon ionic-ios-notifications-outline" transform="translate(382.265 36.07)">
      <path id="Path_2952" data-name="Path 2952" d="M19.483,28.336a.768.768,0,0,0-.753.605,1.486,1.486,0,0,1-.3.647,1.121,1.121,0,0,1-.955.35,1.14,1.14,0,0,1-.955-.35,1.486,1.486,0,0,1-.3-.647.768.768,0,0,0-.753-.605h0a.773.773,0,0,0-.753.943,2.65,2.65,0,0,0,2.758,2.2,2.645,2.645,0,0,0,2.758-2.2.776.776,0,0,0-.753-.943Z" transform="translate(-1.24 -3.817)" fill="#c20000"/>
      <path id="Path_2953" data-name="Path 2953" d="M25.5,21.506c-.913-1.2-2.711-1.91-2.711-7.3,0-5.534-2.444-7.758-4.721-8.292-.214-.053-.368-.125-.368-.35V5.39A1.455,1.455,0,0,0,16.274,3.93h-.036A1.455,1.455,0,0,0,14.815,5.39v.172c0,.219-.154.3-.368.35-2.284.54-4.721,2.758-4.721,8.292,0,5.392-1.8,6.092-2.711,7.3a1.177,1.177,0,0,0,.943,1.886H24.572A1.178,1.178,0,0,0,25.5,21.506Zm-2.313.344H9.352a.26.26,0,0,1-.2-.433A7.186,7.186,0,0,0,10.4,19.435,13.442,13.442,0,0,0,11.25,14.2a9.1,9.1,0,0,1,1.24-5.149,3.806,3.806,0,0,1,2.3-1.637,2.079,2.079,0,0,0,1.1-.623.469.469,0,0,1,.706-.012,2.149,2.149,0,0,0,1.115.635A3.806,3.806,0,0,1,20,9.055a9.1,9.1,0,0,1,1.24,5.149,13.442,13.442,0,0,0,.848,5.232,7.268,7.268,0,0,0,1.275,2.011A.245.245,0,0,1,23.184,21.85Z" transform="translate(0 0)" fill="#c20000"/>
    </g>
    <g id="Ellipse_69" data-name="Ellipse 69" transform="translate(398 42)" fill="#e59215" stroke="#f1f2f7" stroke-width="1">
      <circle cx="5" cy="5" r="5" stroke="none"/>
      <circle cx="5" cy="5" r="4.5" fill="none"/>
    </g>
  </g>
</svg>
