<svg xmlns="http://www.w3.org/2000/svg" width="21.502" height="21.5" viewBox="0 0 21.502 21.5">
  <g id="Group_50" data-name="Group 50" transform="translate(-1.25 -1.25)">
    <path id="Path_2943" data-name="Path 2943" d="M19.06,18.67,16.92,14.4l-2.14,4.27m.39-.76h3.52" fill="none" stroke="#000" stroke-linecap="round" stroke-linejoin="round" stroke-width="1.5"/>
    <path id="Path_2944" data-name="Path 2944" d="M9.01,5.85H4.95m2.02-.68v.68M16.92,22a5.081,5.081,0,1,1,3.593-1.487A5.082,5.082,0,0,1,16.92,22ZM5.02,2H8.94c2.07,0,3.07,1,3.02,3.02V8.94c.05,2.07-.95,3.07-3.02,3.02H5.02C3,12,2,11,2,8.93V5.01C2,3,3,2,5.02,2Z" fill="none" stroke="#000" stroke-linecap="round" stroke-linejoin="round" stroke-width="1.5"/>
    <path id="Path_2945" data-name="Path 2945" d="M7.99,5.84A3.115,3.115,0,0,1,4.94,9.01" fill="none" stroke="#000" stroke-linecap="round" stroke-linejoin="round" stroke-width="1.5"/>
    <path id="Path_2946" data-name="Path 2946" d="M9.01,9.01A2.324,2.324,0,0,1,7.16,8M2,15a7,7,0,0,0,7,7L7.95,20.25M22,9a7,7,0,0,0-7-7l1.05,1.75" fill="none" stroke="#000" stroke-linecap="round" stroke-linejoin="round" stroke-width="1.5"/>
  </g>
</svg>
