<svg xmlns="http://www.w3.org/2000/svg" width="22" height="16.504" viewBox="0 0 22 16.504">
  <g id="Group_2" data-name="Group 2" transform="translate(-0.314 -0.196)">
    <path id="Path_2" data-name="Path 2" d="M1.814,22.757h3.5v-8.5l-5-3.75v10.75A1.5,1.5,0,0,0,1.814,22.757Z" transform="translate(0 -6.056)" fill="#4285f4"/>
    <path id="Path_3" data-name="Path 3" d="M41.516,22.757h3.5a1.5,1.5,0,0,0,1.5-1.5V10.507l-5,3.75" transform="translate(-24.201 -6.056)" fill="#34a853"/>
    <path id="Path_4" data-name="Path 4" d="M41.516,1.7V8.2l5-3.75v-2a2.25,2.25,0,0,0-3.6-1.8" transform="translate(-24.201 0)" fill="#fbbc04"/>
    <path id="Path_5" data-name="Path 5" d="M12.434,10.342v-6.5l6,4.5,6-4.5v6.5l-6,4.5" transform="translate(-7.119 -2.141)" fill="#ea4335"/>
    <path id="Path_6" data-name="Path 6" d="M.314,2.451v2l5,3.75V1.7L3.914.651A2.25,2.25,0,0,0,.314,2.451Z" fill="#c5221f"/>
  </g>
</svg>
