<svg xmlns="http://www.w3.org/2000/svg" width="97.289" height="17.135" viewBox="0 0 97.289 17.135">
  <g id="Group_90" data-name="Group 90" transform="translate(-116.99 -709)">
    <path id="Path_77" data-name="Path 77" d="M10.475,3.472a.489.489,0,0,1,.919,0l1.878,4.714a.5.5,0,0,0,.42.318l4.876.408a.524.524,0,0,1,.284.911l-3.715,3.323a.533.533,0,0,0-.161.514l1.135,4.967a.53.53,0,0,1-.191.54.479.479,0,0,1-.551.023l-4.175-2.661a.48.48,0,0,0-.518,0L6.5,19.191a.479.479,0,0,1-.551-.023.53.53,0,0,1-.191-.54L6.894,13.66a.532.532,0,0,0-.161-.514L3.018,9.824a.534.534,0,0,1-.149-.554A.5.5,0,0,1,3.3,8.912L8.178,8.5a.5.5,0,0,0,.42-.318l1.878-4.714Z" transform="translate(114.655 706.35)" fill="#ffcd3c" stroke="#ffcd3c" stroke-linecap="round" stroke-linejoin="round" stroke-width="1"/>
    <path id="Path_79" data-name="Path 79" d="M10.475,3.472a.489.489,0,0,1,.919,0l1.878,4.714a.5.5,0,0,0,.42.318l4.876.408a.524.524,0,0,1,.284.911l-3.715,3.323a.533.533,0,0,0-.161.514l1.135,4.967a.53.53,0,0,1-.191.54.479.479,0,0,1-.551.023l-4.175-2.661a.48.48,0,0,0-.518,0L6.5,19.191a.479.479,0,0,1-.551-.023.53.53,0,0,1-.191-.54L6.894,13.66a.532.532,0,0,0-.161-.514L3.018,9.824a.534.534,0,0,1-.149-.554A.5.5,0,0,1,3.3,8.912L8.178,8.5a.5.5,0,0,0,.42-.318l1.878-4.714Z" transform="translate(134.677 706.35)" fill="#ffcd3c" stroke="#ffcd3c" stroke-linecap="round" stroke-linejoin="round" stroke-width="1"/>
    <path id="Path_80" data-name="Path 80" d="M10.475,3.472a.489.489,0,0,1,.919,0l1.878,4.714a.5.5,0,0,0,.42.318l4.876.408a.524.524,0,0,1,.284.911l-3.715,3.323a.533.533,0,0,0-.161.514l1.135,4.967a.53.53,0,0,1-.191.54.479.479,0,0,1-.551.023l-4.175-2.661a.48.48,0,0,0-.518,0L6.5,19.191a.479.479,0,0,1-.551-.023.53.53,0,0,1-.191-.54L6.894,13.66a.532.532,0,0,0-.161-.514L3.018,9.824a.534.534,0,0,1-.149-.554A.5.5,0,0,1,3.3,8.912L8.178,8.5a.5.5,0,0,0,.42-.318l1.878-4.714Z" transform="translate(154.7 706.35)" fill="#ffcd3c" stroke="#ffcd3c" stroke-linecap="round" stroke-linejoin="round" stroke-width="1"/>
    <path id="Path_81" data-name="Path 81" d="M10.475,3.472a.489.489,0,0,1,.919,0l1.878,4.714a.5.5,0,0,0,.42.318l4.876.408a.524.524,0,0,1,.284.911l-3.715,3.323a.533.533,0,0,0-.161.514l1.135,4.967a.53.53,0,0,1-.191.54.479.479,0,0,1-.551.023l-4.175-2.661a.48.48,0,0,0-.518,0L6.5,19.191a.479.479,0,0,1-.551-.023.53.53,0,0,1-.191-.54L6.894,13.66a.532.532,0,0,0-.161-.514L3.018,9.824a.534.534,0,0,1-.149-.554A.5.5,0,0,1,3.3,8.912L8.178,8.5a.5.5,0,0,0,.42-.318l1.878-4.714Z" transform="translate(174.722 706.35)" fill="#ffcd3c" stroke="#ffcd3c" stroke-linecap="round" stroke-linejoin="round" stroke-width="1"/>
    <path id="Path_82" data-name="Path 82" d="M10.475,3.472a.489.489,0,0,1,.919,0l1.878,4.714a.5.5,0,0,0,.42.318l4.876.408a.524.524,0,0,1,.284.911l-3.715,3.323a.533.533,0,0,0-.161.514l1.135,4.967a.53.53,0,0,1-.191.54.479.479,0,0,1-.551.023l-4.175-2.661a.48.48,0,0,0-.518,0L6.5,19.191a.479.479,0,0,1-.551-.023.53.53,0,0,1-.191-.54L6.894,13.66a.532.532,0,0,0-.161-.514L3.018,9.824a.534.534,0,0,1-.149-.554A.5.5,0,0,1,3.3,8.912L8.178,8.5a.5.5,0,0,0,.42-.318l1.878-4.714Z" transform="translate(194.745 706.35)" fill="#ffcd3c" stroke="#ffcd3c" stroke-linecap="round" stroke-linejoin="round" stroke-width="1"/>
    <path id="Path_2957" data-name="Path 2957" d="M10.475,3.472a.489.489,0,0,1,.919,0l1.878,4.714a.5.5,0,0,0,.42.318l4.876.408a.524.524,0,0,1,.284.911l-3.715,3.323a.533.533,0,0,0-.161.514l1.135,4.967a.53.53,0,0,1-.191.54.479.479,0,0,1-.551.023l-4.175-2.661a.48.48,0,0,0-.518,0L6.5,19.191a.479.479,0,0,1-.551-.023.53.53,0,0,1-.191-.54L6.894,13.66a.532.532,0,0,0-.161-.514L3.018,9.824a.534.534,0,0,1-.149-.554A.5.5,0,0,1,3.3,8.912L8.178,8.5a.5.5,0,0,0,.42-.318l1.878-4.714Z" transform="translate(194.745 706.35)" fill="#ffcd3c" stroke="#ffcd3c" stroke-linecap="round" stroke-linejoin="round" stroke-width="1"/>
  </g>
</svg>
