<svg xmlns="http://www.w3.org/2000/svg" width="22" height="22.024" viewBox="0 0 22 22.024">
  <g id="Group_11" data-name="Group 11" transform="translate(-1 2)">
    <path id="Path_519" data-name="Path 519" d="M18.47,16.83l.39,3.16a1,1,0,0,1-1.5.98l-4.19-2.49a9.981,9.981,0,0,1-1.35-.09A4.86,4.86,0,0,0,13,15.23a5.327,5.327,0,0,0-5.5-5.14A5.683,5.683,0,0,0,4.38,11a6.339,6.339,0,0,1-.04-.76C4.34,5.69,8.29,2,13.17,2S22,5.69,22,10.24A8.054,8.054,0,0,1,18.47,16.83Z" transform="translate(0 -3)" fill="none" stroke="#fff" stroke-linecap="round" stroke-linejoin="round" stroke-width="2"/>
    <path id="Path_520" data-name="Path 520" d="M13,15.23a4.861,4.861,0,0,1-1.18,3.16A5.584,5.584,0,0,1,7.5,20.36L4.89,21.91a.625.625,0,0,1-.94-.61l.25-1.97A4.935,4.935,0,0,1,4.38,11a5.683,5.683,0,0,1,3.12-.91A5.327,5.327,0,0,1,13,15.23Z" transform="translate(0 -3)" fill="none" stroke="#fff" stroke-linecap="round" stroke-linejoin="round" stroke-width="2"/>
  </g>
</svg>
