<svg xmlns="http://www.w3.org/2000/svg" width="20" height="20" viewBox="0 0 20 20">
  <g id="Group_961" data-name="Group 961" transform="translate(-2 -2)" opacity="0.5">
    <path id="Path_2963" data-name="Path 2963" d="M15.5,11A1.5,1.5,0,1,0,14,9.5,1.5,1.5,0,0,0,15.5,11Z"/>
    <path id="Path_2964" data-name="Path 2964" d="M8.5,11A1.5,1.5,0,1,0,7,9.5,1.5,1.5,0,0,0,8.5,11Z"/>
    <path id="Path_2965" data-name="Path 2965" d="M12,18a5.458,5.458,0,0,0,5-4H7A5.458,5.458,0,0,0,12,18Z"/>
    <path id="Path_2966" data-name="Path 2966" d="M11.99,2A10,10,0,1,0,22,12,10,10,0,0,0,11.99,2ZM12,20a8,8,0,1,1,8-8A8,8,0,0,1,12,20Z"/>
  </g>
</svg>
