<svg xmlns="http://www.w3.org/2000/svg" width="21.5" height="21.5" viewBox="0 0 21.5 21.5">
  <g id="Group_4" data-name="Group 4" transform="translate(0.75 0.75)">
    <path id="Path_516" data-name="Path 516" d="M3.35,2h8.9A1.357,1.357,0,0,1,13.6,3.35V4.83a2.557,2.557,0,0,1-.67,1.55l-2.9,2.56a2.212,2.212,0,0,0-.67,1.55v2.9a1.524,1.524,0,0,1-.61,1.15l-.94.61A1.375,1.375,0,0,1,5.72,14V10.43a2.632,2.632,0,0,0-.54-1.42L2.62,6.31a2.221,2.221,0,0,1-.61-1.35V3.41A1.357,1.357,0,0,1,3.35,2Z" transform="translate(-2 -2)" fill="none" stroke="#c20000" stroke-linecap="round" stroke-linejoin="round" stroke-width="1.5"/>
    <path id="Path_517" data-name="Path 517" d="M2,12v3c0,5,2,7,7,7h6c5,0,7-2,7-7V9c0-3.12-.78-5.08-2.59-6.1a8.8,8.8,0,0,0-2.46-.66M13,13h5m-7,4h7" transform="translate(-2 -2)" fill="none" stroke="#c20000" stroke-linecap="round" stroke-linejoin="round" stroke-width="1.5"/>
  </g>
</svg>
