<svg xmlns="http://www.w3.org/2000/svg" width="25.995" height="25.955" viewBox="0 0 25.995 25.955">
  <g id="Group_965" data-name="Group 965" transform="translate(-3.03 -3.042)">
    <path id="Path_2980" data-name="Path 2980" d="M25.319,25.367a3.734,3.734,0,0,1-3.956,3.623c-3.12.017-6.24,0-9.36,0a.725.725,0,0,1,0-1.449c3.188,0,6.376.046,9.564,0,1.6-.023,2.3-1.229,2.3-2.663V6.817a2.241,2.241,0,0,0-1.4-2.133,4.381,4.381,0,0,0-1.537-.138H12A.725.725,0,1,1,12,3.1c3.223,0,6.47-.123,9.69,0a3.72,3.72,0,0,1,3.623,3.869Z" transform="translate(3.705 0)" fill="#fff"/>
    <path id="Path_2981" data-name="Path 2981" d="M3.242,13.374a.659.659,0,0,0-.2.451.155.155,0,0,1-.009.062.072.072,0,0,0,.009.059.662.662,0,0,0,.2.452l5.317,5.317a.725.725,0,0,0,1.025-1.025L5.5,14.61H21.07a.725.725,0,1,0,0-1.449H5.5L9.583,9.08A.725.725,0,0,0,8.559,8.056Z" transform="translate(0 2.16)" fill="#fff"/>
  </g>
</svg>
