<svg width="75" height="32" viewBox="0 0 75 32" fill="none" xmlns="http://www.w3.org/2000/svg">
<g clip-path="url(#clip0_59_8913)">
<path d="M24.8775 29.1996L22.9668 16.0888L74.9999 14.2328L72.1242 27.1263L24.8775 29.1996Z" fill="#FFAF4D"/>
<path d="M19.6665 28.2716L18.5471 14.2921L73.4173 11.1526L69.7889 25.6455L19.6665 28.2716Z" fill="#1E1834"/>
<path d="M29.722 23.4933C29.6641 23.4933 29.5869 23.4933 29.4904 23.5131C29.4132 23.5131 29.336 23.5328 29.2974 23.5328C29.2588 23.5328 29.2009 23.5328 29.143 23.5328C29.0851 23.5328 29.0465 23.5328 29.0079 23.5131C28.9693 23.4933 28.95 23.4736 28.9114 23.4538C28.8728 23.4341 28.8535 23.3946 28.8342 23.3551C28.8149 23.3156 28.7956 23.2564 28.7956 23.1971C28.7763 23.1379 28.7763 23.0589 28.7763 22.9602C28.757 22.4468 28.6605 19.2876 28.6412 18.873C28.6219 18.3596 28.6219 18.0832 28.6798 18.0437L29.9922 17.9844C30.2238 17.9647 30.3975 17.9844 30.5133 18.0042C30.6291 18.0239 30.7063 18.0634 30.7449 18.1226C30.7835 18.1819 30.8028 18.2609 30.8221 18.3793C30.8221 18.4188 30.8221 18.4781 30.8221 18.5768C30.8221 18.6755 30.8221 18.7545 30.8221 18.8137V18.9717C30.8221 19.0507 30.8221 19.1691 30.8221 19.3073C30.8221 19.4653 30.8221 19.5838 30.8221 19.643V19.722C30.8221 19.7417 30.8221 19.7615 30.8414 19.7812C30.8414 19.7812 31.3046 19.7615 31.3432 19.7615C31.459 19.7615 31.5362 19.7417 31.5748 19.722L31.4976 18.2214C31.4976 18.1029 31.4976 18.0239 31.4976 17.9647C31.4976 17.9054 31.5169 17.8857 31.5362 17.866C31.5555 17.8462 31.5941 17.8462 31.652 17.8462C31.6906 17.8462 31.9222 17.8462 31.9415 17.8462L32.1924 17.8265C32.3661 17.8067 32.5205 17.8067 32.6556 17.787C33.2925 17.7475 33.6206 17.8067 33.6206 17.9449C33.6206 17.9844 33.6206 18.0437 33.6399 18.1029C33.6399 18.1819 33.6399 18.2214 33.6592 18.2609C33.6592 18.3398 33.8522 21.9532 33.8522 21.9532C33.8522 21.9532 33.8522 21.9729 33.8522 21.9927C33.8522 22.1112 33.9101 23.0194 33.9294 23.1576C33.9101 23.2366 33.6978 23.2959 33.2539 23.3156L31.7871 23.3946L31.6713 23.2564C31.6713 23.2564 31.6134 21.7557 31.5941 21.5978C31.5941 21.5385 31.5748 21.4991 31.5748 21.4793C31.5555 21.4596 31.5362 21.4596 31.4976 21.4596H31.3625C31.2081 21.4596 31.0537 21.4793 30.9379 21.5188C30.9379 21.7162 30.9958 23.1182 31.0151 23.3156C30.9958 23.3946 30.7063 23.4341 30.1466 23.4736L29.722 23.4933Z" fill="white"/>
<path d="M34.219 20.4723L34.1997 20.0774C34.1997 19.7417 34.2576 19.4258 34.3734 19.1494C34.4699 18.8729 34.6243 18.636 34.798 18.4188C34.9717 18.2214 35.184 18.0436 35.4156 17.9054C35.6472 17.7672 35.8981 17.6487 36.149 17.5895C36.3999 17.5105 36.6894 17.471 36.9596 17.4513C37.114 17.4513 37.2684 17.4513 37.4421 17.471C37.6158 17.4908 37.7895 17.5303 37.9825 17.5698C38.1755 17.6093 38.3492 17.6882 38.5422 17.787C38.7159 17.8857 38.8703 18.0239 38.9861 18.1621C39.2177 18.4385 39.4107 18.7347 39.5265 19.0506C39.6423 19.3666 39.7195 19.722 39.7388 20.0971C39.7774 20.9067 39.6423 21.5583 39.3142 22.0716L39.1791 22.2888C39.044 22.4863 38.8703 22.664 38.6194 22.8022C38.3685 22.9404 38.1176 23.0392 37.8667 23.0984C37.6158 23.1576 37.3649 23.1971 37.114 23.2169C36.8052 23.2366 36.535 23.2169 36.2648 23.1576C36.0139 23.0984 35.7823 23.0392 35.5893 22.9404C35.3963 22.8417 35.2226 22.7232 35.0682 22.585C34.9138 22.4468 34.798 22.2888 34.6822 22.1309C34.5857 21.9729 34.4892 21.7952 34.4313 21.5978C34.3541 21.4003 34.3155 21.2226 34.2769 21.0252C34.2576 20.8672 34.2383 20.6697 34.219 20.4723ZM36.9403 18.9124C36.8438 18.9124 36.7666 18.9519 36.6894 18.9914C36.6122 19.0506 36.5543 19.0901 36.5157 19.1691C36.4771 19.2284 36.4385 19.3271 36.3999 19.4455C36.3613 19.564 36.342 19.6627 36.342 19.7417C36.3227 19.8207 36.3227 19.9392 36.3227 20.0774C36.3227 20.2156 36.3227 20.3143 36.3227 20.3933C36.3227 20.4723 36.3227 20.5513 36.342 20.6697C36.342 20.7882 36.3613 20.8869 36.3613 20.9857C36.3806 21.0844 36.3999 21.1831 36.4385 21.3016C36.4771 21.4201 36.5157 21.499 36.5543 21.578C36.5929 21.657 36.6701 21.7162 36.7473 21.7755C36.8245 21.8347 36.921 21.8544 37.0175 21.8544C37.114 21.8544 37.2105 21.8347 37.2877 21.7952C37.3649 21.7557 37.4228 21.7162 37.4807 21.657C37.5386 21.5978 37.5772 21.5188 37.6158 21.4398C37.6544 21.3411 37.6737 21.2621 37.693 21.1831C37.7123 21.1041 37.7123 20.9857 37.7316 20.8672C37.7316 20.7487 37.7316 20.6303 37.7316 20.5513C37.7316 20.4525 37.7316 20.3538 37.7123 20.2156C37.7123 20.1169 37.693 20.0182 37.693 19.9392C37.6737 19.8602 37.6737 19.7615 37.6544 19.6627C37.6351 19.564 37.6158 19.4653 37.5772 19.3863C37.5386 19.3073 37.5 19.2284 37.4421 19.1691C37.3842 19.1099 37.3263 19.0506 37.2491 19.0112C37.1333 18.9322 37.0561 18.9124 36.9403 18.9124Z" fill="white"/>
<path d="M39.6616 18.5965C39.6616 18.557 39.6616 18.4978 39.6616 18.3991C39.6616 18.3201 39.6616 18.2608 39.6616 18.2214C39.6616 18.2016 39.6616 18.1621 39.6423 18.0831C39.6423 18.0042 39.623 17.9449 39.623 17.8857C39.6037 17.629 39.623 17.5105 39.6809 17.5105C39.7002 17.5105 39.7195 17.5105 39.7388 17.5105C40.2213 17.4908 43.5988 17.2736 44.062 17.2538C44.1778 17.2538 44.255 17.2538 44.2936 17.2736C44.3322 17.2933 44.3515 17.3328 44.3515 17.3921C44.3515 17.3921 44.4094 18.478 44.4094 18.5965C44.4094 18.715 44.3901 18.794 44.3129 18.794C44.1778 18.794 43.2707 18.8335 43.1356 18.8335L43.3286 22.6837C43.3093 22.7627 43.2707 22.8022 43.2128 22.8022C43.1356 22.8022 42.5759 22.822 42.4987 22.822C42.4987 22.822 42.4987 22.822 42.4794 22.822C42.3829 22.822 41.4179 22.8615 41.4179 22.8615C41.3793 22.8615 41.3021 22.8812 41.2056 22.8812L41.0512 22.7232C41.0319 22.3678 41.0126 21.815 41.0126 21.1041C40.9933 20.3933 40.9933 19.8405 40.974 19.485C40.974 19.4653 40.9547 19.3271 40.9547 19.3073C40.9547 19.2876 40.9547 19.2481 40.9547 19.2086C40.9547 19.1691 40.9354 19.1494 40.9354 19.1296C40.9354 19.1099 40.9161 19.0901 40.8968 19.0704C40.8775 19.0506 40.8582 19.0309 40.8389 19.0309C40.8196 19.0309 40.8003 19.0112 40.7617 19.0112L39.7581 19.0704C39.7195 19.0704 39.6809 18.9124 39.6616 18.5965Z" fill="white"/>
<path d="M46.8413 17.2736C46.8413 17.2538 46.8606 17.2144 46.8799 17.1946C46.8992 17.1749 46.9571 17.1551 47.015 17.1354C47.0729 17.1156 47.1308 17.1156 47.1887 17.0959C47.2466 17.0761 47.3045 17.0761 47.3817 17.0761C47.4589 17.0761 48.4432 17.0169 48.5976 17.0169C48.7327 16.9972 48.8485 16.9972 48.9064 16.9972C50.0258 16.9379 50.8364 17.0959 51.3189 17.471L51.454 17.5698C51.4926 17.6093 51.5505 17.6488 51.5891 17.708C51.647 17.7672 51.7049 17.8462 51.7821 17.9844C51.8593 18.1029 51.9365 18.2411 51.9944 18.3793C52.0523 18.5175 52.1102 18.6952 52.1681 18.9124C52.226 19.1296 52.2453 19.3468 52.2646 19.564C52.2839 19.9194 52.2453 20.2354 52.1681 20.5513C52.0909 20.8672 51.9751 21.1239 51.8207 21.3608C51.6663 21.5978 51.4926 21.7952 51.2803 21.9729C51.068 22.1506 50.8364 22.2691 50.5855 22.3678C50.3346 22.4666 50.0644 22.506 49.7942 22.5258C49.7942 22.5258 48.8871 22.5653 48.7906 22.5653C48.2116 22.585 47.6712 22.6245 47.208 22.6838C47.1501 22.5653 47.1115 22.4666 47.1115 22.3678L46.8413 17.2736ZM49.0994 21.2818C49.2345 21.2818 49.3696 21.2621 49.4854 21.2226C49.6012 21.1831 49.6977 21.1436 49.7556 21.0844C49.8328 21.0252 49.8907 20.9659 49.9486 20.8672C50.0065 20.7882 50.0451 20.6895 50.0837 20.6105C50.1223 20.5315 50.1416 20.4131 50.1416 20.3143C50.1609 20.1959 50.1609 20.0971 50.1609 19.9984C50.1609 19.8997 50.1609 19.7812 50.1609 19.6628L50.1416 19.4456C50.1223 19.0112 50.0258 18.6755 49.8328 18.478C49.6591 18.2806 49.3503 18.1819 48.9257 18.1819C48.9064 18.2016 48.9064 18.2411 48.8678 18.3003C48.8485 18.3398 48.8292 18.3793 48.8099 18.4188C48.8099 18.4188 48.8292 18.715 48.8292 18.8729C48.9064 20.4526 48.9836 21.2621 49.0994 21.2818Z" fill="white"/>
<path d="M52.8241 22.1111L52.5925 16.8589L56.6842 16.6615L56.7421 17.9449C56.7421 17.9449 56.7421 17.9647 56.7421 18.0042C56.7421 18.0239 56.7421 18.0437 56.7228 18.0634C56.7228 18.0634 56.7035 18.0831 56.7035 18.1029C56.6842 18.1226 56.6842 18.1424 56.6649 18.1424C56.6456 18.1424 56.6263 18.1621 56.607 18.1621C56.5877 18.1621 56.5491 18.1819 56.5298 18.1819H56.4333C55.8349 18.2214 55.2752 18.2214 54.7734 18.2411C54.7734 18.2806 54.7734 18.3398 54.7541 18.4188C54.7541 18.4978 54.7348 18.5768 54.7348 18.636C54.7348 18.6952 54.7348 18.7545 54.7348 18.8137L56.4139 18.7347C56.4911 18.7347 56.5298 18.7347 56.5491 18.7545C56.5684 18.7742 56.5877 18.794 56.5877 18.8532C56.5877 18.8729 56.5877 18.8927 56.5877 18.9124C56.5877 18.9322 56.5877 18.9519 56.5877 18.9717C56.5877 19.0901 56.6456 19.8799 56.6649 19.9984C56.6649 20.0379 56.6456 20.0774 56.607 20.0774C56.5877 20.0774 56.5877 20.0774 56.5684 20.0577C55.8349 20.1366 55.2752 20.1761 54.9278 20.1959H54.8313L54.8506 20.7092C55.0629 20.6895 55.3524 20.6698 55.7577 20.6303C56.1437 20.5908 56.4526 20.571 56.6456 20.5513C56.8 20.5513 56.8965 20.571 56.9158 20.6303C56.9158 20.6303 56.993 21.815 56.993 21.9137C56.993 22.0322 56.9544 22.0914 56.8579 22.0914C56.7421 22.0914 55.8543 22.1309 55.7191 22.1506C55.391 22.1704 53.1908 22.3283 52.9206 22.3481L52.8241 22.2296C52.8241 22.1901 52.8241 22.1309 52.8241 22.1111Z" fill="white"/>
<path d="M56.9158 22.0519C57.0316 21.499 57.1667 20.9264 57.3211 20.3538C57.4755 19.7812 58.2475 16.9379 58.344 16.6417C58.3633 16.6022 58.3826 16.5627 58.4019 16.543C58.4019 16.543 60.8723 16.4048 60.8916 16.4048C60.9109 16.4048 60.9495 16.4048 60.9688 16.4048C61.0074 16.4048 61.0267 16.4048 61.046 16.4245C61.0653 16.4245 61.0846 16.4443 61.1039 16.464C61.1232 16.4838 61.1232 16.5035 61.1232 16.5233L62.9953 21.6965C62.9953 21.736 62.976 21.7755 62.9567 21.7952C62.9181 21.8149 62.8602 21.8347 62.7637 21.8347C62.7637 21.8347 61.2776 21.9334 61.2197 21.9334C61.1618 21.9334 61.1039 21.9334 61.0267 21.9334C60.9495 21.9334 60.8916 21.9137 60.853 21.8939C60.8144 21.8742 60.7758 21.8544 60.7758 21.8149L60.7565 21.578C60.7179 21.4595 60.6793 21.3608 60.6214 21.2621C60.5635 21.1634 60.4863 21.1239 60.4284 21.1239L59.2125 21.1831L59.0581 21.9532C59.0388 22.0124 58.9037 22.0519 58.6721 22.0519L58.3826 22.0716C58.2861 22.0716 58.1317 22.0914 57.9387 22.1111C57.7457 22.1309 57.5913 22.1309 57.4948 22.1506C57.4948 22.1506 57.0702 22.1704 57.0316 22.1901C57.0123 22.1506 56.9737 22.1111 56.9158 22.0519ZM59.2511 19.7417L59.3669 19.8997L59.5985 19.8799C59.7915 19.8799 59.9652 19.8602 60.1196 19.8207C60.274 19.7812 60.3512 19.7417 60.3512 19.7022L59.7915 17.6487C59.7529 17.6487 59.695 17.7277 59.6371 17.9054C59.5792 18.0831 59.5213 18.2608 59.4827 18.4583L59.2511 19.7417Z" fill="white"/>
<path d="M62.9568 16.9379C62.9375 16.543 62.9761 16.3258 63.0533 16.2863C63.0726 16.2863 63.1112 16.2863 63.1498 16.2863C63.1498 16.2863 63.9025 16.2271 63.999 16.2271C64.3271 16.2073 64.5973 16.2073 64.8096 16.2271C65.0219 16.2468 65.1377 16.2863 65.157 16.3653L65.2921 20.0774H65.3693C65.5623 20.0576 65.6781 20.0379 65.7553 20.0379C65.8325 20.0379 65.9676 20.0379 66.1606 20.0379C66.3536 20.0379 66.5466 20.0379 66.7396 20.0181C66.894 20.0181 67.0098 20.0181 67.087 20.0379C67.1642 20.0576 67.2028 20.0774 67.2028 20.1366L67.2607 21.5188C67.2414 21.5978 66.7203 21.6767 65.6974 21.736L63.2656 21.8544C63.2077 21.7755 63.1691 21.6372 63.1691 21.4595C63.1884 21.4201 62.9761 17.0366 62.9568 16.9379Z" fill="white"/>
<path d="M25.7268 14.3314C25.0706 13.048 25.0706 13.048 24.9741 14.2919C24.9162 15.0225 24.7811 15.753 24.6267 16.0295C24.3179 16.6218 24.5688 16.7205 25.4759 16.3256C26.4409 15.9307 26.4795 15.7925 25.7268 14.3314ZM24.4144 22.0715C23.488 21.3804 23.3722 20.5116 23.9705 19.0307C24.26 18.3199 24.1828 18.2409 23.5459 18.5173C20.8825 19.6428 19.1069 16.3059 21.5773 14.8053C22.4651 14.2721 21.7896 13.1862 20.014 12.3371C18.7981 11.7448 18.6051 11.4486 18.3542 9.73078C17.9489 7.04544 17.8717 6.98621 16.6172 8.28938C15.5363 9.39511 15.4784 9.63205 16.3084 9.75052C17.0804 9.88874 17.5436 10.4613 17.5436 11.2906C17.5436 12.6728 15.3433 13.5416 14.2818 12.5346C14.0502 12.3174 13.8186 12.2384 13.5291 12.2976C13.2782 12.3569 12.8536 12.2581 12.4483 12.0607C11.8307 11.7448 11.7342 11.7448 11.2324 11.962C7.3338 13.6008 7.3338 8.92123 10.7885 8.92123C11.464 8.92123 11.4254 8.98046 11.6763 7.44034C11.7535 6.86774 12.9115 4.85374 13.2782 4.6168C13.6063 4.41934 13.4326 3.7875 12.9308 3.43209C12.7185 3.29387 6.9285 -1.4252 7.7198 0.450581C8.72341 2.93846 8.54971 3.27413 9.32171 3.37286C13.8572 4.1824 8.89711 9.25689 6.71619 6.86774C6.23369 6.33462 5.75119 6.6308 3.91768 8.58556C2.62457 9.94797 6.7162 13.9562 7.99 13.5811C11.5219 12.5938 10.7499 17.5301 7.5268 17.1352C6.9478 17.076 6.71619 17.1154 6.23369 17.4511C4.59318 18.5568 2.83687 16.76 3.64748 14.7855C4.05278 13.7785 4.05278 13.739 3.66678 13.739C2.97197 13.739 1.23496 15.99 2.08417 17.846C3.43518 20.7683 -0.000244141 23.7695 -0.000244141 26.1982C-0.000244141 28.9822 2.87547 31.4109 4.80548 31.865C5.17219 31.944 5.40379 32.023 5.51959 31.944C5.71259 31.8255 5.71259 31.3911 5.71259 30.3052C5.71259 28.1924 5.90559 27.6198 6.61969 27.6198C7.2566 27.6198 8.85851 26.7708 9.59191 26.0402C10.2674 25.3689 10.499 25.6058 10.499 26.909C10.499 27.5803 10.499 27.5803 9.82351 27.5014C7.3338 27.2249 7.2759 30.6803 9.20591 30.3644C10.499 30.1077 12.0816 28.2912 11.4061 27.8568C10.9622 27.5803 11.5798 26.5931 12.236 26.5339C12.9115 26.4549 12.9887 26.5141 12.6799 26.8498C12.1009 27.5014 12.2746 28.7256 13.008 29.1007C13.587 29.3969 13.6256 29.4561 13.5677 29.9103C13.4133 30.8975 14.8801 31.016 15.5556 30.0682C15.8644 29.6536 15.8644 29.6536 15.5749 29.2982C15.324 29.002 15.324 28.9428 15.517 28.8835C17.4857 28.1924 16.8295 25.5663 14.6871 25.6058C12.8536 25.6453 12.9501 23.7893 14.9187 21.9332C16.3856 20.5511 16.7523 20.5708 15.8258 21.9925C14.4748 24.1052 15.71 25.3689 17.9682 24.1842C18.6823 23.809 19.8596 24.5199 18.7788 25.2307C17.6208 26.0007 17.2927 27.3631 18.0647 28.1727C19.0876 29.2389 19.5122 29.2784 20.7281 28.4689C21.5773 27.8963 21.5001 30.1077 21.2492 30.7593C21.0948 31.1345 21.0562 31.2529 21.2106 31.2529C21.3071 31.2529 21.4615 31.1937 21.6931 31.1147C29.9342 28.6071 24.7039 22.2689 24.4144 22.0715ZM15.324 13.8575C15.8837 14.1537 15.9802 14.3511 15.6714 14.6473C15.2661 15.062 13.7414 14.825 13.2975 14.2524C12.815 13.6206 14.2625 13.3441 15.324 13.8575ZM7.3145 17.8263C8.0093 17.9052 8.0672 18.1817 7.4303 18.5766C6.9092 18.8925 6.17579 18.9912 6.02139 18.7543C5.75119 18.3001 6.54249 17.767 7.3145 17.8263ZM2.60527 5.60405C1.89117 5.38685 0.77176 6.53207 1.40866 6.8085C1.69817 6.92697 1.83327 6.86774 2.35437 6.33462C2.97197 5.72252 2.97197 5.72252 2.60527 5.60405ZM19.5894 3.05693C19.2034 3.35311 18.7016 3.64929 18.4314 3.70852C17.8331 3.82699 17.7559 4.04419 18.0454 4.77476C18.2191 5.1894 18.2577 5.38685 18.1226 5.66329C17.9875 5.93972 18.0068 5.97921 18.4121 5.97921C19.242 5.97921 18.7981 5.24864 19.9561 3.92572C20.8439 2.85948 20.6123 2.26713 19.5894 3.05693Z" fill="#FF4D4A"/>
<path d="M6.58111 9.67169C5.288 9.67169 5.0564 10.2246 5.90561 11.2908C6.36881 11.8831 6.88991 11.9819 7.29521 11.5672C7.64261 11.1921 7.06361 9.67169 6.58111 9.67169ZM24.2793 24.7964C24.0863 24.2436 23.7003 23.9671 23.7003 24.362C23.7003 25.5073 20.9404 24.7569 22.6774 22.506C23.0055 22.0914 23.0055 22.0914 22.5616 22.1901C22.3107 22.2493 21.7124 22.348 21.2299 22.3875C20.5158 22.4468 19.9368 22.7429 20.5158 22.7429C20.7474 22.7429 20.6895 23.0589 20.4193 23.3945C19.7438 24.1449 17.9489 23.1773 19.1262 22.1111C19.3771 21.8742 19.3771 21.8544 19.1069 21.42C18.5665 20.5118 18.8946 18.4583 19.7438 17.4118C20.4772 16.5232 19.3578 15.299 18.2384 15.7729C17.7752 15.9704 17.7752 15.9704 18.2191 16.3258C19.1262 17.0169 18.7788 18.0041 17.4857 18.399C16.8102 18.5965 16.9453 18.4978 17.1383 18.8532C18.084 20.6895 13.9538 21.1633 15.3241 18.9124C15.6136 18.4385 15.7101 18.478 15.0153 18.0831C14.6679 17.9054 14.3977 17.6685 14.3977 17.5895C14.3977 17.5105 14.3205 17.4513 14.224 17.4513C14.1082 17.4513 14.1468 17.5895 14.3012 17.8264C14.7258 18.478 13.4326 19.0111 12.5641 18.5372C12.0044 18.2213 12.3904 17.1353 13.0466 17.1353C13.6835 17.1353 13.394 16.2666 12.4869 15.4175C12.0816 15.0226 12.0816 15.0226 12.1781 15.4175C12.4676 16.4443 12.4676 16.5035 11.9079 17.1353C10.8078 18.3793 10.4797 19.327 11.1552 19.327C12.9694 19.327 13.2396 21.1436 11.5026 21.6767C10.3639 22.0321 9.45683 21.42 10.0744 20.7092C10.2867 20.4723 10.2867 20.413 10.0937 20.413C9.53403 20.413 8.91642 20.7684 8.76202 21.2226C8.10582 22.8417 5.7319 23.0786 5.0564 21.578C4.5546 20.5118 4.4195 20.492 4.4195 21.5385C4.4195 22.5455 3.55099 24.4608 2.37369 26.0601C0.424374 28.6862 4.2844 31.3123 5.5196 31.9442C5.7126 31.8257 5.7126 31.3913 5.7126 30.3053C5.7126 28.1926 5.90561 27.62 6.61971 27.62C7.25661 27.62 8.85852 26.7709 9.59193 26.0404C10.2674 25.369 10.499 25.606 10.499 26.9092C10.499 27.5805 10.499 27.5805 9.82353 27.5015C7.33381 27.2251 7.27591 30.6805 9.20592 30.3646C10.499 30.1079 12.0816 28.2913 11.4061 27.8569C10.9622 27.5805 11.5798 26.5932 12.236 26.534C12.9115 26.455 12.9887 26.5143 12.6799 26.8499C12.1009 27.5015 12.2746 28.7257 13.008 29.1009C13.587 29.397 13.6257 29.4563 13.5677 29.9104C13.4133 30.8977 14.8802 31.0161 15.5557 30.0684C15.8645 29.6537 15.8645 29.6537 15.575 29.2983C15.3241 29.0021 15.3241 28.9429 15.5171 28.8837C17.4857 28.1926 16.8295 25.5665 14.6872 25.606C12.8536 25.6455 12.9501 23.7894 14.9188 21.9334C16.3856 20.5512 16.7523 20.571 15.8259 21.9926C14.4749 24.1054 15.7101 25.369 17.9682 24.1843C18.6823 23.8092 19.8596 24.52 18.7788 25.2308C17.6208 26.0009 17.2927 27.3633 18.0647 28.1729C19.0876 29.2391 19.5122 29.2786 20.7281 28.469C21.5773 27.8964 21.5001 30.1079 21.2492 30.7595C21.0948 31.1346 21.0562 31.2531 21.2106 31.2531C21.6931 31.0754 22.0984 30.8779 22.3686 30.6805C24.3565 29.2786 25.0706 27.1461 24.2793 24.7964ZM9.88143 23.3748C9.10942 24.0066 7.89352 23.6117 8.10582 22.7824C8.27952 22.1309 9.66913 21.7162 10.113 22.1506C10.4218 22.4665 10.3253 23.0194 9.88143 23.3748ZM23.0248 26.2378C22.6002 26.6722 21.751 26.455 21.9247 25.9614C22.0598 25.606 22.7739 25.4678 23.0441 25.7442C23.2564 25.9614 23.2371 26.0206 23.0248 26.2378Z" fill="#FFAF4D"/>
</g>
<defs>
<clipPath id="clip0_59_8913">
<rect width="75.0002" height="31.9673" fill="white" transform="translate(-0.000244141 0.0163574)"/>
</clipPath>
</defs>
</svg>
