<svg xmlns="http://www.w3.org/2000/svg" width="10.895" height="14.526" viewBox="0 0 10.895 14.526">
  <path id="Icon_awesome-clipboard-list" data-name="Icon awesome-clipboard-list" d="M9.533,1.816H7.263a1.816,1.816,0,0,0-3.632,0H1.362A1.362,1.362,0,0,0,0,3.178v9.987a1.362,1.362,0,0,0,1.362,1.362H9.533a1.362,1.362,0,0,0,1.362-1.362V3.178A1.362,1.362,0,0,0,9.533,1.816ZM2.724,12.03a.681.681,0,1,1,.681-.681A.679.679,0,0,1,2.724,12.03Zm0-2.724A.681.681,0,1,1,3.4,8.625.679.679,0,0,1,2.724,9.306Zm0-2.724A.681.681,0,1,1,3.4,5.9.679.679,0,0,1,2.724,6.582ZM5.447,1.135a.681.681,0,1,1-.681.681A.679.679,0,0,1,5.447,1.135ZM9.079,11.576a.228.228,0,0,1-.227.227H4.767a.228.228,0,0,1-.227-.227v-.454a.228.228,0,0,1,.227-.227H8.852a.228.228,0,0,1,.227.227Zm0-2.724a.228.228,0,0,1-.227.227H4.767a.228.228,0,0,1-.227-.227V8.4a.228.228,0,0,1,.227-.227H8.852a.228.228,0,0,1,.227.227Zm0-2.724a.228.228,0,0,1-.227.227H4.767a.228.228,0,0,1-.227-.227V5.674a.228.228,0,0,1,.227-.227H8.852a.228.228,0,0,1,.227.227Z" fill="#fff"/>
</svg>
