<svg xmlns="http://www.w3.org/2000/svg" xmlns:xlink="http://www.w3.org/1999/xlink" width="20.01" height="20" viewBox="0 0 20.01 20">
  <defs>
    <linearGradient id="linear-gradient" x1="0.5" x2="0.5" y2="1" gradientUnits="objectBoundingBox">
      <stop offset="0" stop-color="#d41d1d"/>
      <stop offset="1" stop-color="#340303"/>
    </linearGradient>
  </defs>
  <g id="Icon_ionic-ios-link" data-name="Icon ionic-ios-link" transform="translate(-3.375 -3.375)">
    <path id="Path_3025" data-name="Path 3025" d="M14.529,20.515l-.058,0a.8.8,0,0,0-.462.216L10.9,23.842A3.5,3.5,0,0,1,5.952,18.89l3.3-3.3a3.481,3.481,0,0,1,.548-.447,3.534,3.534,0,0,1,.712-.361,3.366,3.366,0,0,1,.721-.178,3.409,3.409,0,0,1,.49-.034c.067,0,.135,0,.221.01a3.491,3.491,0,0,1,2.25,1.01,3.447,3.447,0,0,1,.822,1.312.757.757,0,0,0,.928.486s.01,0,.014,0,.01,0,.01,0a.751.751,0,0,0,.5-.918,4.357,4.357,0,0,0-1.183-1.971,5.061,5.061,0,0,0-2.769-1.409c-.091-.014-.183-.029-.274-.038a4.962,4.962,0,0,0-.534-.029c-.125,0-.25,0-.37.014a4.849,4.849,0,0,0-.779.12c-.053.01-.1.024-.154.038a5,5,0,0,0-.937.351,4.939,4.939,0,0,0-1.332.957l-3.3,3.3a5.071,5.071,0,0,0-1.466,3.582A5.055,5.055,0,0,0,12,24.948l3.139-3.139A.761.761,0,0,0,14.529,20.515Z" transform="translate(0 -3.048)" fill="url(#linear-gradient)"/>
    <path id="Path_3026" data-name="Path 3026" d="M25.091,4.851a5.066,5.066,0,0,0-7.149,0L14.879,7.913a.773.773,0,0,0,.486,1.317.781.781,0,0,0,.611-.221l3.067-3.058A3.5,3.5,0,0,1,23.995,10.9l-3.3,3.3a3.481,3.481,0,0,1-.548.447,3.534,3.534,0,0,1-.712.361,3.366,3.366,0,0,1-.721.178,3.409,3.409,0,0,1-.49.034c-.067,0-.139,0-.221-.01a3.455,3.455,0,0,1-3.038-2.236.768.768,0,0,0-.918-.471.777.777,0,0,0-.543.986,4.392,4.392,0,0,0,1.139,1.8h0l.01.01A5.062,5.062,0,0,0,17.7,16.75a4.961,4.961,0,0,0,.534.029q.188,0,.375-.014a5.5,5.5,0,0,0,.928-.154,5,5,0,0,0,.938-.351A4.939,4.939,0,0,0,21.8,15.3L25.1,12a5.061,5.061,0,0,0-.01-7.154Z" transform="translate(-3.192)" fill="url(#linear-gradient)"/>
  </g>
</svg>
