<svg xmlns="http://www.w3.org/2000/svg" width="16.356" height="18.693" viewBox="0 0 16.356 18.693">
  <path id="Icon_metro-attachment" data-name="Icon metro-attachment" d="M15.105,7.9,13.92,6.713,7.99,12.641A2.515,2.515,0,0,0,11.548,16.2l7.115-7.114a4.192,4.192,0,0,0-5.929-5.928l-7.47,7.469-.016.015a5.847,5.847,0,0,0,8.269,8.268l.015-.016h0l5.1-5.1L17.445,12.61l-5.1,5.1-.015.015a4.17,4.17,0,0,1-5.9-5.9l.016-.015h0L13.92,4.341A2.515,2.515,0,0,1,17.477,7.9l-7.115,7.114a.838.838,0,1,1-1.186-1.185L15.105,7.9Z" transform="translate(-3.535 -1.928)" fill="#143d75" opacity="0.5"/>
</svg>
