<svg xmlns="http://www.w3.org/2000/svg" width="26.024" height="17.683" viewBox="0 0 26.024 17.683">
  <path id="Icon_awesome-inbox" data-name="Icon awesome-inbox" d="M24.674,12.316,20.082,5.429A2.085,2.085,0,0,0,18.347,4.5H6.677a2.085,2.085,0,0,0-1.735.929L.35,12.316A2.085,2.085,0,0,0,0,13.473V19.1a2.085,2.085,0,0,0,2.085,2.085H22.939A2.085,2.085,0,0,0,25.024,19.1V13.473a2.085,2.085,0,0,0-.35-1.157ZM7.049,7.28H17.975l3.707,5.561H16.335l-1.39,2.78H10.079l-1.39-2.78H3.342Z" transform="translate(0.5 -4)" fill="none" stroke="#c20000" stroke-width="1"/>
</svg>
