<svg xmlns="http://www.w3.org/2000/svg" width="18" height="18.001" viewBox="0 0 18 18.001">
  <path id="Icon_awesome-flag-usa" data-name="Icon awesome-flag-usa" d="M1.125,0A1.124,1.124,0,0,0,0,1.124V17.437A.564.564,0,0,0,.562,18H1.687a.564.564,0,0,0,.562-.562V1.124A1.124,1.124,0,0,0,1.125,0Zm9.418,10.673a9.4,9.4,0,0,0-7.168.39V13.5c6.529-3.241,7.794,1.874,13.975-.812A1.1,1.1,0,0,0,18,11.674V10.409a10.652,10.652,0,0,1-3.941.847,13.389,13.389,0,0,1-3.516-.584Zm0-3.375a9.4,9.4,0,0,0-7.168.39V9.85a10.438,10.438,0,0,1,7.457-.267A9.4,9.4,0,0,0,18,9.192V7.03a10.652,10.652,0,0,1-3.941.847,13.248,13.248,0,0,1-3.516-.58Zm.334-4.426C12.7,3.42,14.3,3.891,18,2.165V1.082A1.142,1.142,0,0,0,16.263.147c-6.022,3.069-5.527-2.334-12.888.991v5.34a10.457,10.457,0,0,1,7.457-.267A9.434,9.434,0,0,0,18,5.821V3.4a11.006,11.006,0,0,1-4.433,1.1,9.854,9.854,0,0,1-3.013-.559c-.141-.042-.285-.084-.425-.123V2.653c.253.07.5.144.749.218ZM5.625,4.5a.562.562,0,1,1,.562-.562A.562.562,0,0,1,5.625,4.5Zm0-1.962a.562.562,0,1,1,.562-.562A.562.562,0,0,1,5.625,2.541Zm2.25,1.684a.562.562,0,1,1,.562-.562A.562.562,0,0,1,7.875,4.225Zm0-1.965A.562.562,0,1,1,8.437,1.7.562.562,0,0,1,7.875,2.26Z" transform="translate(0 0.002)" fill="#727398"/>
</svg>
