<svg xmlns="http://www.w3.org/2000/svg" width="23.278" height="15.159" viewBox="0 0 23.278 15.159">
  <path id="Icon_awesome-eye" data-name="Icon awesome-eye" d="M23.138,11.5a12.941,12.941,0,0,0-23,0,1.251,1.251,0,0,0,0,1.152,12.941,12.941,0,0,0,23,0A1.251,1.251,0,0,0,23.138,11.5Zm-11.5,6.261a5.753,5.753,0,0,1-5.82-5.685,5.753,5.753,0,0,1,5.82-5.685,5.753,5.753,0,0,1,5.82,5.685A5.75,5.75,0,0,1,11.639,17.764Zm0-9.474a3.936,3.936,0,0,0-1.023.15,1.856,1.856,0,0,1-.19,2.455,1.968,1.968,0,0,1-2.514.186,3.738,3.738,0,0,0,1.579,4.13A3.945,3.945,0,0,0,14,15.071a3.729,3.729,0,0,0,1.309-4.219A3.865,3.865,0,0,0,11.639,8.29Z" transform="translate(0 -4.5)" fill="#fff"/>
</svg>
