<svg xmlns="http://www.w3.org/2000/svg" width="17.656" height="18.833" viewBox="0 0 17.656 18.833">
  <path id="Icon_metro-calendar" data-name="Icon metro-calendar" d="M8.456,8.99H10.81v2.354H8.456Zm3.531,0h2.354v2.354H11.987Zm3.531,0h2.354v2.354H15.519ZM4.925,16.053H7.279v2.354H4.925Zm3.531,0H10.81v2.354H8.456Zm3.531,0h2.354v2.354H11.987ZM8.456,12.522H10.81v2.354H8.456Zm3.531,0h2.354v2.354H11.987Zm3.531,0h2.354v2.354H15.519Zm-10.594,0H7.279v2.354H4.925ZM17.873,1.928V3.105H15.519V1.928H7.279V3.105H4.925V1.928H2.571V20.761H20.227V1.928H17.873ZM19.05,19.584H3.748V6.636h15.3Z" transform="translate(-2.571 -1.928)" fill="#727398"/>
</svg>
