<svg xmlns="http://www.w3.org/2000/svg" width="39.725" height="38.094" viewBox="0 0 39.725 38.094">
  <path id="Icon_awesome-star" data-name="Icon awesome-star" d="M18.256,1.253l-4.6,9.323-10.287,1.5A2.254,2.254,0,0,0,2.124,15.92l7.443,7.253L7.807,33.418a2.252,2.252,0,0,0,3.267,2.373l9.2-4.837,9.2,4.837a2.254,2.254,0,0,0,3.267-2.373l-1.76-10.245L38.43,15.92a2.254,2.254,0,0,0-1.246-3.845L26.9,10.576,22.3,1.253a2.255,2.255,0,0,0-4.042,0Z" transform="translate(-0.415 1.001)" fill="none" stroke="#d3d3d3" stroke-width="2" opacity="0.5"/>
</svg>
