<svg xmlns="http://www.w3.org/2000/svg" width="17.541" height="18.711" viewBox="0 0 17.541 18.711">
  <path id="Icon_awesome-star-of-life" data-name="Icon awesome-star-of-life" d="M17.249,12.222,12.281,9.355l4.968-2.866a.585.585,0,0,0,.214-.8l-1.17-2.026a.585.585,0,0,0-.8-.214L10.526,6.317V.585A.585.585,0,0,0,9.941,0H7.6a.585.585,0,0,0-.585.585V6.317L2.048,3.451a.585.585,0,0,0-.8.214L.079,5.69a.585.585,0,0,0,.214.8L5.26,9.355.293,12.222a.585.585,0,0,0-.214.8l1.17,2.026a.586.586,0,0,0,.8.214l4.968-2.866v5.732a.585.585,0,0,0,.585.585h2.34a.585.585,0,0,0,.585-.585V12.394l4.968,2.866a.585.585,0,0,0,.8-.214l1.17-2.026A.584.584,0,0,0,17.249,12.222Z" transform="translate(0)" fill="#727398"/>
</svg>
