<svg xmlns="http://www.w3.org/2000/svg" width="20.991" height="14.195" viewBox="0 0 20.991 14.195">
  <g id="Icon_ionic-ios-mail" data-name="Icon ionic-ios-mail" transform="translate(0)">
    <path id="Path_512" data-name="Path 512" d="M24.194,10.344l-5.429,5.4a.094.094,0,0,0,0,.138l3.8,3.953a.629.629,0,0,1,0,.907.669.669,0,0,1-.928,0l-3.784-3.938a.105.105,0,0,0-.146,0l-.923.917a4.111,4.111,0,0,1-2.9,1.193,4.193,4.193,0,0,1-2.957-1.227l-.888-.882a.105.105,0,0,0-.146,0L6.11,20.744a.669.669,0,0,1-.928,0,.629.629,0,0,1,0-.907l3.8-3.953a.1.1,0,0,0,0-.138l-5.434-5.4a.1.1,0,0,0-.172.069V21.222A1.6,1.6,0,0,0,4.99,22.8H22.751a1.6,1.6,0,0,0,1.615-1.577V10.413A.1.1,0,0,0,24.194,10.344Z" transform="translate(-3.375 -8.604)" fill="#fff"/>
    <path id="Path_513" data-name="Path 513" d="M14.111,16.9a2.776,2.776,0,0,0,1.973-.808L24,8.22a1.609,1.609,0,0,0-1-.345H5.225a1.6,1.6,0,0,0-1,.345l7.917,7.871A2.776,2.776,0,0,0,14.111,16.9Z" transform="translate(-3.615 -7.875)" fill="#fff"/>
  </g>
</svg>
