<svg xmlns="http://www.w3.org/2000/svg" width="22.375" height="22.375" viewBox="0 0 22.375 22.375">
  <path id="Icon_ionic-ios-close-circle" data-name="Icon ionic-ios-close-circle" d="M14.563,3.375A11.188,11.188,0,1,0,25.75,14.563,11.186,11.186,0,0,0,14.563,3.375ZM17.4,18.613l-2.835-2.835-2.835,2.835A.86.86,0,1,1,10.512,17.4l2.835-2.835-2.835-2.835a.86.86,0,0,1,1.216-1.216l2.835,2.835L17.4,10.512a.86.86,0,0,1,1.216,1.216l-2.835,2.835L18.613,17.4a.864.864,0,0,1,0,1.216A.854.854,0,0,1,17.4,18.613Z" transform="translate(-3.375 -3.375)" fill="#333132"/>
</svg>
