<svg xmlns="http://www.w3.org/2000/svg" width="17.004" height="17.004" viewBox="0 0 17.004 17.004">
  <g id="Icon_feather-settings" data-name="Icon feather-settings" transform="translate(-0.75 -0.75)">
    <path id="Path_2974" data-name="Path 2974" d="M17.728,15.614A2.114,2.114,0,1,1,15.614,13.5,2.114,2.114,0,0,1,17.728,15.614Z" transform="translate(-6.362 -6.362)" fill="none" stroke="#fff" stroke-linecap="round" stroke-linejoin="round" stroke-width="1.5"/>
    <path id="Path_2975" data-name="Path 2975" d="M14.467,11.366a1.163,1.163,0,0,0,.233,1.283l.042.042a1.41,1.41,0,1,1-1.994,1.994l-.042-.042a1.172,1.172,0,0,0-1.987.832v.12a1.409,1.409,0,1,1-2.819,0v-.063a1.163,1.163,0,0,0-.761-1.064,1.163,1.163,0,0,0-1.283.233l-.042.042a1.41,1.41,0,1,1-1.994-1.994l.042-.042a1.172,1.172,0,0,0-.832-1.987h-.12a1.409,1.409,0,1,1,0-2.819h.063a1.163,1.163,0,0,0,1.064-.761A1.163,1.163,0,0,0,3.8,5.855l-.042-.042A1.41,1.41,0,1,1,5.756,3.819l.042.042a1.163,1.163,0,0,0,1.283.233h.056a1.163,1.163,0,0,0,.7-1.064v-.12a1.409,1.409,0,0,1,2.819,0v.063a1.172,1.172,0,0,0,1.987.832l.042-.042a1.41,1.41,0,1,1,1.994,1.994l-.042.042a1.163,1.163,0,0,0-.233,1.283v.056a1.163,1.163,0,0,0,1.064.7h.12a1.409,1.409,0,1,1,0,2.819h-.063A1.163,1.163,0,0,0,14.467,11.366Z" fill="none" stroke="#fff" stroke-linecap="round" stroke-linejoin="round" stroke-width="1.5"/>
  </g>
</svg>
