<svg xmlns="http://www.w3.org/2000/svg" width="19.164" height="19.164" viewBox="0 0 19.164 19.164">
  <path id="Icon_material-local-phone" data-name="Icon material-local-phone" d="M8.354,12.794A16.128,16.128,0,0,0,15.37,19.81l2.342-2.342a1.059,1.059,0,0,1,1.086-.256,12.144,12.144,0,0,0,3.8.607,1.068,1.068,0,0,1,1.065,1.065V22.6A1.068,1.068,0,0,1,22.6,23.664,18.1,18.1,0,0,1,4.5,5.565,1.068,1.068,0,0,1,5.565,4.5H9.291a1.068,1.068,0,0,1,1.065,1.065,12.1,12.1,0,0,0,.607,3.8,1.068,1.068,0,0,1-.266,1.086L8.354,12.794Z" transform="translate(-4.5 -4.5)" fill="#727398"/>
</svg>
