<svg xmlns="http://www.w3.org/2000/svg" width="17.834" height="23.779" viewBox="0 0 17.834 23.779">
  <path id="Icon_awesome-notes-medical" data-name="Icon awesome-notes-medical" d="M15.6,2.972H11.889a2.972,2.972,0,0,0-5.945,0H2.229A2.23,2.23,0,0,0,0,5.2V21.549a2.23,2.23,0,0,0,2.229,2.229H15.6a2.23,2.23,0,0,0,2.229-2.229V5.2A2.23,2.23,0,0,0,15.6,2.972ZM8.917,1.858A1.115,1.115,0,1,1,7.8,2.972,1.112,1.112,0,0,1,8.917,1.858Zm4.458,14.119a.373.373,0,0,1-.372.372H10.4v2.6a.373.373,0,0,1-.372.372H7.8a.373.373,0,0,1-.372-.372v-2.6H4.83a.373.373,0,0,1-.372-.372V13.747a.373.373,0,0,1,.372-.372h2.6v-2.6A.373.373,0,0,1,7.8,10.4h2.229a.373.373,0,0,1,.372.372v2.6H13a.373.373,0,0,1,.372.372Zm0-8.917A.373.373,0,0,1,13,7.431H4.83a.373.373,0,0,1-.372-.372V6.316a.373.373,0,0,1,.372-.372H13a.373.373,0,0,1,.372.372Z" fill="#727398"/>
</svg>
