<svg xmlns="http://www.w3.org/2000/svg" width="15.288" height="15.288" viewBox="0 0 15.288 15.288">
  <path id="Icon_metro-question" data-name="Icon metro-question" d="M9.259,12.439H11.17V14.35H9.259ZM13.081,5.75a.956.956,0,0,1,.956.956V9.572L11.17,11.483H9.259v-.956l2.867-1.911V7.661H7.348V5.75h5.733ZM10.215,3.361A6.211,6.211,0,1,0,14.607,5.18a6.17,6.17,0,0,0-4.392-1.819Zm0-1.433A7.644,7.644,0,1,1,2.571,9.572a7.644,7.644,0,0,1,7.644-7.644Z" transform="translate(-2.571 -1.928)" fill="#fff"/>
</svg>
