<svg xmlns="http://www.w3.org/2000/svg" width="25" height="23.955" viewBox="0 0 25 23.955">
  <g id="Icon_feather-shopping-cart" data-name="Icon feather-shopping-cart" transform="translate(-0.5 -0.5)">
    <path id="Path_2954" data-name="Path 2954" d="M14.091,31.045A1.045,1.045,0,1,1,13.045,30,1.045,1.045,0,0,1,14.091,31.045Z" transform="translate(-3.182 -8.636)" fill="none" stroke="#c20000" stroke-linecap="round" stroke-linejoin="round" stroke-width="2"/>
    <path id="Path_2955" data-name="Path 2955" d="M30.591,31.045A1.045,1.045,0,1,1,29.545,30,1.045,1.045,0,0,1,30.591,31.045Z" transform="translate(-8.182 -8.636)" fill="none" stroke="#c20000" stroke-linecap="round" stroke-linejoin="round" stroke-width="2"/>
    <path id="Path_2956" data-name="Path 2956" d="M1.5,1.5H5.682l2.8,14a2.091,2.091,0,0,0,2.091,1.683H20.736A2.091,2.091,0,0,0,22.827,15.5L24.5,6.727H6.727" fill="none" stroke="#c20000" stroke-linecap="round" stroke-linejoin="round" stroke-width="2"/>
  </g>
</svg>
