<svg xmlns="http://www.w3.org/2000/svg" width="14.958" height="18.723" viewBox="0 0 14.958 18.723">
  <g id="Icon_ionic-ios-notifications-outline" data-name="Icon ionic-ios-notifications-outline" transform="translate(-6.775 -3.93)">
    <path id="Path_2976" data-name="Path 2976" d="M18.474,28.336a.606.606,0,0,0-.594.477,1.173,1.173,0,0,1-.234.51.884.884,0,0,1-.753.276.9.9,0,0,1-.753-.276,1.173,1.173,0,0,1-.234-.51.606.606,0,0,0-.594-.477h0a.61.61,0,0,0-.594.744,2.091,2.091,0,0,0,2.176,1.736,2.087,2.087,0,0,0,2.176-1.736.613.613,0,0,0-.594-.744Z" transform="translate(-2.651 -8.163)" fill="#fff"/>
    <path id="Path_2977" data-name="Path 2977" d="M21.546,17.8c-.721-.95-2.139-1.507-2.139-5.76,0-4.366-1.928-6.121-3.725-6.542-.168-.042-.29-.1-.29-.276V5.082A1.148,1.148,0,0,0,14.269,3.93h-.028a1.148,1.148,0,0,0-1.123,1.151v.136c0,.173-.122.234-.29.276-1.8.426-3.725,2.176-3.725,6.542,0,4.254-1.418,4.806-2.139,5.76a.929.929,0,0,0,.744,1.488H20.816A.93.93,0,0,0,21.546,17.8Zm-1.825.271H8.808a.205.205,0,0,1-.154-.342,5.669,5.669,0,0,0,.983-1.563,10.6,10.6,0,0,0,.669-4.127,7.176,7.176,0,0,1,.978-4.062,3,3,0,0,1,1.811-1.292,1.64,1.64,0,0,0,.87-.491.37.37,0,0,1,.557-.009,1.7,1.7,0,0,0,.88.5,3,3,0,0,1,1.811,1.292,7.176,7.176,0,0,1,.978,4.062,10.6,10.6,0,0,0,.669,4.127,5.734,5.734,0,0,0,1.006,1.586A.193.193,0,0,1,19.721,18.067Z" fill="#fff"/>
  </g>
</svg>
