<svg xmlns="http://www.w3.org/2000/svg" width="17.864" height="20.416" viewBox="0 0 17.864 20.416">
  <path id="Icon_awesome-calendar-alt" data-name="Icon awesome-calendar-alt" d="M0,18.5a1.914,1.914,0,0,0,1.914,1.914H15.95A1.914,1.914,0,0,0,17.864,18.5V7.656H0Zm12.76-7.815a.48.48,0,0,1,.478-.478h1.595a.48.48,0,0,1,.478.478v1.595a.48.48,0,0,1-.478.478H13.238a.48.48,0,0,1-.478-.478Zm0,5.1a.48.48,0,0,1,.478-.478h1.595a.48.48,0,0,1,.478.478v1.595a.48.48,0,0,1-.478.478H13.238a.48.48,0,0,1-.478-.478Zm-5.1-5.1a.48.48,0,0,1,.478-.478H9.729a.48.48,0,0,1,.478.478v1.595a.48.48,0,0,1-.478.478H8.134a.48.48,0,0,1-.478-.478Zm0,5.1a.48.48,0,0,1,.478-.478H9.729a.48.48,0,0,1,.478.478v1.595a.48.48,0,0,1-.478.478H8.134a.48.48,0,0,1-.478-.478Zm-5.1-5.1a.48.48,0,0,1,.478-.478H4.625a.48.48,0,0,1,.478.478v1.595a.48.48,0,0,1-.478.478H3.03a.48.48,0,0,1-.478-.478Zm0,5.1a.48.48,0,0,1,.478-.478H4.625a.48.48,0,0,1,.478.478v1.595a.48.48,0,0,1-.478.478H3.03a.48.48,0,0,1-.478-.478ZM15.95,2.552H14.036V.638A.64.64,0,0,0,13.4,0H12.122a.64.64,0,0,0-.638.638V2.552H6.38V.638A.64.64,0,0,0,5.742,0H4.466a.64.64,0,0,0-.638.638V2.552H1.914A1.914,1.914,0,0,0,0,4.466V6.38H17.864V4.466A1.914,1.914,0,0,0,15.95,2.552Z" opacity="0.5"/>
</svg>
