<svg xmlns="http://www.w3.org/2000/svg" width="21.044" height="20.179" viewBox="0 0 21.044 20.179">
  <g id="Icon_feather-shopping-cart" data-name="Icon feather-shopping-cart" transform="translate(-0.5 -0.5)">
    <path id="Path_2954" data-name="Path 2954" d="M13.731,30.866A.866.866,0,1,1,12.866,30,.866.866,0,0,1,13.731,30.866Z" transform="translate(-4.44 -12.053)" fill="none" stroke="#c20000" stroke-linecap="round" stroke-linejoin="round" stroke-width="2"/>
    <path id="Path_2955" data-name="Path 2955" d="M30.231,30.866A.866.866,0,1,1,29.366,30,.866.866,0,0,1,30.231,30.866Z" transform="translate(-11.418 -12.053)" fill="none" stroke="#c20000" stroke-linecap="round" stroke-linejoin="round" stroke-width="2"/>
    <path id="Path_2956" data-name="Path 2956" d="M1.5,1.5H4.963l2.32,11.591a1.731,1.731,0,0,0,1.731,1.394h8.414a1.731,1.731,0,0,0,1.731-1.394l1.385-7.263H5.828" fill="none" stroke="#c20000" stroke-linecap="round" stroke-linejoin="round" stroke-width="2"/>
  </g>
</svg>
