<svg xmlns="http://www.w3.org/2000/svg" xmlns:xlink="http://www.w3.org/1999/xlink" width="111.208" height="101.93" viewBox="0 0 111.208 101.93">
  <defs>
    <linearGradient id="linear-gradient" x1="0.439" x2="0.435" y2="2.013" gradientUnits="objectBoundingBox">
      <stop offset="0" stop-color="#c20000"/>
      <stop offset="1" stop-color="#1d1e1e"/>
    </linearGradient>
    <filter id="Icon_metro-dollar" x="0" y="0" width="111.208" height="101.93" filterUnits="userSpaceOnUse">
      <feOffset dy="17" input="SourceAlpha"/>
      <feGaussianBlur stdDeviation="15" result="blur"/>
      <feFlood flood-color="#000017" flood-opacity="0.122"/>
      <feComposite operator="in" in2="blur"/>
      <feComposite in="SourceGraphic"/>
    </filter>
  </defs>
  <g transform="matrix(1, 0, 0, 1, 0, 0)" filter="url(#Icon_metro-dollar)">
    <path id="Icon_metro-dollar-2" data-name="Icon metro-dollar" d="M2.571,20.606V8.676H23.779v11.93H2.571ZM3.9,9.961v9.32H22.454V9.961H3.9Zm12.592,4.68c0-2.2-1.483-3.977-3.314-3.977h8.616v7.953H13.175c1.831,0,3.314-1.781,3.314-3.977Zm2.651,1.326c.549,0,.994-.594.994-1.326s-.445-1.326-.994-1.326-.994.594-.994,1.326S18.591,15.967,19.14,15.967Zm-4.561-3a.169.169,0,0,1-.041.079.1.1,0,0,1-.072.025.346.346,0,0,1-.145-.057c-.066-.039-.148-.08-.244-.125a2.444,2.444,0,0,0-.335-.124,1.489,1.489,0,0,0-.418-.055.992.992,0,0,0-.311.043.642.642,0,0,0-.221.119.477.477,0,0,0-.133.184.6.6,0,0,0-.043.227.5.5,0,0,0,.1.309.934.934,0,0,0,.261.232,2.689,2.689,0,0,0,.371.19c.137.06.278.123.422.188a4.248,4.248,0,0,1,.422.226,1.681,1.681,0,0,1,.369.3,1.431,1.431,0,0,1,.261.414,1.45,1.45,0,0,1,.1.561,1.657,1.657,0,0,1-.156.741,1.534,1.534,0,0,1-.427.532,1.851,1.851,0,0,1-.629.321c-.03.009-.064.013-.095.021v.724h-.651v-.638h-.024a2.794,2.794,0,0,1-.516-.044,3.076,3.076,0,0,1-.42-.109,1.843,1.843,0,0,1-.3-.133A.856.856,0,0,1,11.519,17a.311.311,0,0,1-.077-.155,1.415,1.415,0,0,1-.023-.292c0-.085,0-.157.009-.215a.642.642,0,0,1,.027-.141.151.151,0,0,1,.05-.077.122.122,0,0,1,.072-.023.345.345,0,0,1,.164.068,2.828,2.828,0,0,0,.271.151,2.479,2.479,0,0,0,.4.152,1.89,1.89,0,0,0,.532.068,1.224,1.224,0,0,0,.356-.048.791.791,0,0,0,.267-.135.581.581,0,0,0,.168-.215.683.683,0,0,0,.058-.287.507.507,0,0,0-.1-.313,1,1,0,0,0-.259-.232,2.7,2.7,0,0,0-.362-.19q-.2-.089-.418-.188a3.75,3.75,0,0,1-.418-.226,1.684,1.684,0,0,1-.362-.3,1.421,1.421,0,0,1-.258-.416,1.5,1.5,0,0,1-.1-.575,1.525,1.525,0,0,1,.142-.677,1.386,1.386,0,0,1,.385-.484,1.651,1.651,0,0,1,.571-.288,2.323,2.323,0,0,1,.349-.072V11.2h.651v.685c.026,0,.052,0,.078.006a2.582,2.582,0,0,1,.356.078,1.9,1.9,0,0,1,.294.111.68.68,0,0,1,.17.1.314.314,0,0,1,.056.07.376.376,0,0,1,.025.077.74.74,0,0,1,.014.121c0,.048,0,.108,0,.18s0,.148-.006.2a.926.926,0,0,1-.023.135ZM9.861,14.641c0,2.2,1.483,3.977,3.314,3.977H4.559V10.664h8.616c-1.831,0-3.314,1.781-3.314,3.977ZM7.21,13.315c-.549,0-.994.594-.994,1.326s.445,1.326.994,1.326.994-.594.994-1.326S7.759,13.315,7.21,13.315Z" transform="translate(42.43 19.32)" fill="url(#linear-gradient)"/>
  </g>
</svg>
