<svg xmlns="http://www.w3.org/2000/svg" width="16.806" height="20.64" viewBox="0 0 16.806 20.64">
  <path id="Icon_metro-apple" data-name="Icon metro-apple" d="M19.472,12.895A4.67,4.67,0,0,1,21.7,8.965,4.82,4.82,0,0,0,17.926,6.92c-1.607-.163-3.136.946-3.952.946s-2.072-.922-3.405-.9A5.05,5.05,0,0,0,6.3,9.556c-1.82,3.158-.466,7.837,1.308,10.4.867,1.254,1.9,2.662,3.258,2.612,1.307-.052,1.8-.846,3.381-.846s2.024.846,3.407.82c1.406-.026,2.3-1.278,3.158-2.536a11.377,11.377,0,0,0,1.43-2.935,4.558,4.558,0,0,1-2.77-4.175Zm-2.6-7.671a4.549,4.549,0,0,0,1.074-3.3,4.627,4.627,0,0,0-3.04,1.563,4.327,4.327,0,0,0-1.1,3.193A3.828,3.828,0,0,0,16.873,5.224Z" transform="translate(-5.436 -1.928)" fill="#fff"/>
</svg>
