<svg xmlns="http://www.w3.org/2000/svg" width="22.007" height="17.605" viewBox="0 0 22.007 17.605">
  <path id="Icon_awesome-city" data-name="Icon awesome-city" d="M21.181,6.6H16.5V.825A.825.825,0,0,0,15.68,0H10.728A.825.825,0,0,0,9.9.825V3.3H7.7V.55A.55.55,0,0,0,7.152,0H6.6a.55.55,0,0,0-.55.55V3.3h-2.2V.55A.55.55,0,0,0,3.3,0h-.55A.55.55,0,0,0,2.2.55V3.3H.825A.825.825,0,0,0,0,4.126V16.5a1.1,1.1,0,0,0,1.1,1.1H20.906a1.1,1.1,0,0,0,1.1-1.1V7.427A.825.825,0,0,0,21.181,6.6ZM4.4,13.892a.413.413,0,0,1-.413.413H2.613a.413.413,0,0,1-.413-.413V12.516a.413.413,0,0,1,.413-.413H3.989a.413.413,0,0,1,.413.413Zm0-3.3A.413.413,0,0,1,3.989,11H2.613a.413.413,0,0,1-.413-.413V9.215A.413.413,0,0,1,2.613,8.8H3.989a.413.413,0,0,1,.413.413Zm0-3.3a.413.413,0,0,1-.413.413H2.613A.413.413,0,0,1,2.2,7.29V5.914A.413.413,0,0,1,2.613,5.5H3.989a.413.413,0,0,1,.413.413Zm4.4,6.6a.413.413,0,0,1-.413.413H7.015a.413.413,0,0,1-.413-.413V12.516a.413.413,0,0,1,.413-.413H8.39a.413.413,0,0,1,.413.413Zm0-3.3A.413.413,0,0,1,8.39,11H7.015a.413.413,0,0,1-.413-.413V9.215A.413.413,0,0,1,7.015,8.8H8.39a.413.413,0,0,1,.413.413Zm0-3.3A.413.413,0,0,1,8.39,7.7H7.015A.413.413,0,0,1,6.6,7.29V5.914A.413.413,0,0,1,7.015,5.5H8.39a.413.413,0,0,1,.413.413Zm5.5,3.3a.413.413,0,0,1-.413.413H12.516a.413.413,0,0,1-.413-.413V9.215a.413.413,0,0,1,.413-.413h1.375a.413.413,0,0,1,.413.413Zm0-3.3a.413.413,0,0,1-.413.413H12.516A.413.413,0,0,1,12.1,7.29V5.914a.413.413,0,0,1,.413-.413h1.375a.413.413,0,0,1,.413.413Zm0-3.3a.413.413,0,0,1-.413.413H12.516a.413.413,0,0,1-.413-.413V2.613a.413.413,0,0,1,.413-.413h1.375a.413.413,0,0,1,.413.413Zm5.5,9.9a.413.413,0,0,1-.413.413H18.018a.413.413,0,0,1-.413-.413V12.516a.413.413,0,0,1,.413-.413h1.375a.413.413,0,0,1,.413.413Zm0-3.3a.413.413,0,0,1-.413.413H18.018a.413.413,0,0,1-.413-.413V9.215a.413.413,0,0,1,.413-.413h1.375a.413.413,0,0,1,.413.413Z" fill="#727398"/>
</svg>
