<svg xmlns="http://www.w3.org/2000/svg" width="26" height="22.286" viewBox="0 0 26 22.286">
  <path id="Icon_ionic-md-reverse-camera" data-name="Icon ionic-md-reverse-camera" d="M25.929,6.357H20.821L18.964,4.5H11.536L9.679,6.357H4.571A2.321,2.321,0,0,0,2.25,8.679V24.464a2.321,2.321,0,0,0,2.321,2.321H25.929a2.321,2.321,0,0,0,2.321-2.321V8.679A2.321,2.321,0,0,0,25.929,6.357ZM21.75,16.281H16.08l2.6-2.617a4.737,4.737,0,0,0-3.412-1.48,4.875,4.875,0,0,0,0,9.75,4.808,4.808,0,0,0,4.538-3.1h1.718a6.521,6.521,0,1,1-1.671-6.361l1.9-1.909v5.722Z" transform="translate(-2.25 -4.5)" fill="#333132"/>
</svg>
