<svg xmlns="http://www.w3.org/2000/svg" width="8.639" height="10.633" viewBox="0 0 8.639 10.633">
  <path id="Icon_metro-bin" data-name="Icon metro-bin" d="M5.163,5.251V11.9a.667.667,0,0,0,.665.665h5.981a.667.667,0,0,0,.665-.665V5.251Zm1.994,5.981H6.492V6.58h.665Zm1.329,0H7.821V6.58h.665Zm1.329,0H9.151V6.58h.665Zm1.329,0H10.48V6.58h.665Zm1.5-7.975H10.48V2.426a.5.5,0,0,0-.5-.5H7.655a.5.5,0,0,0-.5.5v.831H5a.5.5,0,0,0-.5.5v.831h8.639V3.756A.5.5,0,0,0,12.639,3.257Zm-2.824,0H7.821V2.6H9.815v.656Z" transform="translate(-4.499 -1.928)" fill="#fff"/>
</svg>
