<svg xmlns="http://www.w3.org/2000/svg" width="14.013" height="15.403" viewBox="0 0 14.013 15.403">
  <g id="Icon_feather-share-2" data-name="Icon feather-share-2" transform="translate(0.75 0.75)">
    <path id="Path_2958" data-name="Path 2958" d="M26.671,5.085A2.085,2.085,0,1,1,24.585,3,2.085,2.085,0,0,1,26.671,5.085Z" transform="translate(-14.158 -3)" fill="none" stroke="#c20000" stroke-linecap="round" stroke-linejoin="round" stroke-width="1.5"/>
    <path id="Path_2959" data-name="Path 2959" d="M8.671,15.585A2.085,2.085,0,1,1,6.585,13.5,2.085,2.085,0,0,1,8.671,15.585Z" transform="translate(-4.5 -8.634)" fill="none" stroke="#c20000" stroke-linecap="round" stroke-linejoin="round" stroke-width="1.5"/>
    <path id="Path_2960" data-name="Path 2960" d="M26.671,26.085A2.085,2.085,0,1,1,24.585,24,2.085,2.085,0,0,1,26.671,26.085Z" transform="translate(-14.158 -14.268)" fill="none" stroke="#c20000" stroke-linecap="round" stroke-linejoin="round" stroke-width="1.5"/>
    <path id="Path_2961" data-name="Path 2961" d="M12.885,20.265l4.748,2.767" transform="translate(-8.999 -12.264)" fill="none" stroke="#c20000" stroke-linecap="round" stroke-linejoin="round" stroke-width="1.5"/>
    <path id="Path_2962" data-name="Path 2962" d="M17.626,9.765l-4.741,2.767" transform="translate(-8.999 -6.63)" fill="none" stroke="#c20000" stroke-linecap="round" stroke-linejoin="round" stroke-width="1.5"/>
  </g>
</svg>
