<svg xmlns="http://www.w3.org/2000/svg" width="20.653" height="24.578" viewBox="0 0 20.653 24.578">
  <path id="Icon_awesome-apple" data-name="Icon awesome-apple" d="M17.549,15.238a5.122,5.122,0,0,1,2.744-4.653,5.9,5.9,0,0,0-4.648-2.447c-1.948-.154-4.077,1.136-4.856,1.136-.823,0-2.711-1.081-4.192-1.081C3.535,8.242.281,10.634.281,15.5a13.676,13.676,0,0,0,.79,4.455c.7,2.014,3.237,6.952,5.882,6.87,1.383-.033,2.359-.982,4.159-.982,1.745,0,2.65.982,4.192.982,2.667-.038,4.96-4.527,5.63-6.546a5.439,5.439,0,0,1-3.386-5.043Zm-3.106-9.01A5.168,5.168,0,0,0,15.76,2.25a5.818,5.818,0,0,0-3.726,1.915,5.249,5.249,0,0,0-1.4,3.945A4.608,4.608,0,0,0,14.443,6.228Z" transform="translate(-0.281 -2.25)"/>
</svg>
