<svg xmlns="http://www.w3.org/2000/svg" width="22.223" height="16.667" viewBox="0 0 22.223 16.667">
  <path id="Icon_metro-credit-card" data-name="Icon metro-credit-card" d="M22.71,5.784H4.654A2.09,2.09,0,0,0,2.571,7.867v12.5a2.09,2.09,0,0,0,2.083,2.083H22.71a2.09,2.09,0,0,0,2.083-2.083V7.867A2.09,2.09,0,0,0,22.71,5.784ZM4.654,7.173H22.71a.7.7,0,0,1,.694.694V9.951H3.96V7.867a.7.7,0,0,1,.694-.694ZM22.71,21.062H4.654a.7.7,0,0,1-.694-.694v-6.25H23.4v6.25A.7.7,0,0,1,22.71,21.062ZM5.349,16.9H6.737v2.778H5.349Zm2.778,0H9.515v2.778H8.126Zm2.778,0h1.389v2.778H10.9Z" transform="translate(-2.571 -5.784)" opacity="0.5"/>
</svg>
