<svg xmlns="http://www.w3.org/2000/svg" width="14.176" height="17.731" viewBox="0 0 14.176 17.731">
  <g id="Icon_ionic-ios-notifications" data-name="Icon ionic-ios-notifications" transform="translate(-6.761 -3.93)">
    <path id="Path_2937" data-name="Path 2937" d="M16.74,30.685a2.089,2.089,0,0,0,2.132-2.349H14.6A2.09,2.09,0,0,0,16.74,30.685Z" transform="translate(-2.9 -9.024)" fill="#fff"/>
    <path id="Path_2938" data-name="Path 2938" d="M20.758,17.061c-.682-.9-2.025-1.427-2.025-5.455,0-4.135-1.826-5.8-3.528-6.2-.16-.04-.275-.093-.275-.261V5.021a1.081,1.081,0,1,0-2.163,0v.129c0,.164-.115.222-.275.261-1.706.4-3.528,2.061-3.528,6.2,0,4.028-1.343,4.551-2.025,5.455a.88.88,0,0,0,.7,1.409H20.058A.88.88,0,0,0,20.758,17.061Z" transform="translate(0 0)" fill="#fff"/>
  </g>
</svg>
