<svg xmlns="http://www.w3.org/2000/svg" width="19.6" height="20" viewBox="0 0 19.6 20">
  <path id="Path_3002" data-name="Path 3002" d="M12,2a1.421,1.421,0,0,0-.6.2L3.5,6.6a1.05,1.05,0,0,0-.5.9v9a1.05,1.05,0,0,0,.5.9l7.9,4.4a1.421,1.421,0,0,0,.6.2,1.421,1.421,0,0,0,.6-.2l.9-.5a6.529,6.529,0,0,1-.5-2V12.6l6-3.4V13a6.448,6.448,0,0,1,2,.3V7.5a1.05,1.05,0,0,0-.5-.9L12.6,2.2A1.421,1.421,0,0,0,12,2m0,2.2,6,3.3L16,8.6,10.1,5.2ZM8.1,6.3,14,9.8l-2,1.1L6,7.5ZM5,9.2l6,3.4v6.7L5,15.9Zm16.3,6.6-3.6,3.6-1.6-1.6L15,19l2.8,3,4.8-4.8Z" transform="translate(-3 -2)"/>
</svg>
