<svg xmlns="http://www.w3.org/2000/svg" width="18.363" height="18.371" viewBox="0 0 18.363 18.371">
  <path id="Path_3005" data-name="Path 3005" d="M19.95,10.362,13.8,7.247V4.623a2.623,2.623,0,0,0-5.247,0V7.247L2.413,10.362a.656.656,0,0,0-.413.61v3.279a.643.643,0,0,0,.846.623l5.712-2.381v3.279L6.3,16.9a.656.656,0,0,0-.361.59v2.217a.656.656,0,0,0,.656.656.591.591,0,0,0,.184,0l4.407-1.312,4.407,1.312a.591.591,0,0,0,.184,0,.656.656,0,0,0,.656-.656V17.491a.656.656,0,0,0-.361-.59L13.8,15.773V12.493l5.712,2.368a.651.651,0,0,0,.846-.623V10.959a.656.656,0,0,0-.413-.6Zm-.9,2.886-6.558-2.722v6.06L15.117,17.9v.938l-3.935-1.148L7.247,18.835V17.9L9.87,16.586v-6.06L3.312,13.248V11.378L9.87,8.053V4.623a1.312,1.312,0,0,1,2.623,0v3.43l6.558,3.325Z" transform="translate(-2 -2)" fill="#fff"/>
</svg>
