<svg xmlns="http://www.w3.org/2000/svg" width="18.363" height="18.371" viewBox="0 0 18.363 18.371">
  <path id="Path_3004" data-name="Path 3004" d="M19.95,12.009,13.8,15.124v2.623a2.623,2.623,0,0,1-5.247,0V15.124L2.413,12.009A.656.656,0,0,1,2,11.4V8.12A.643.643,0,0,1,2.846,7.5L8.558,9.877V6.6L6.3,5.47a.656.656,0,0,1-.361-.59V2.663a.656.656,0,0,1,.656-.656.591.591,0,0,1,.184,0l4.407,1.312,4.407-1.312a.591.591,0,0,1,.184,0,.656.656,0,0,1,.656.656V4.88a.656.656,0,0,1-.361.59L13.8,6.6V9.877L19.517,7.51a.651.651,0,0,1,.846.623v3.279a.656.656,0,0,1-.413.6Zm-.9-2.886-6.558,2.722V5.785l2.623-1.312V3.535L11.182,4.683,7.247,3.535v.938L9.87,5.785v6.06L3.312,9.123v1.869L9.87,14.317v3.43a1.312,1.312,0,0,0,2.623,0v-3.43l6.558-3.325Z" transform="translate(-2 -2)" fill="#fff"/>
</svg>
