<svg xmlns="http://www.w3.org/2000/svg" width="19.737" height="21.588" viewBox="0 0 19.737 21.588">
  <path id="Path_518" data-name="Path 518" d="M6.467,22.621h3.7v-7.4h7.4v7.4h3.7v-11.1l-7.4-5.551-7.4,5.551Zm0,2.467A2.474,2.474,0,0,1,4,22.621v-11.1a2.445,2.445,0,0,1,.263-1.11,2.36,2.36,0,0,1,.724-.864l7.4-5.551a2.6,2.6,0,0,1,.709-.37,2.471,2.471,0,0,1,1.542,0,2.6,2.6,0,0,1,.709.37l7.4,5.551a2.372,2.372,0,0,1,.725.864,2.455,2.455,0,0,1,.262,1.11v11.1a2.472,2.472,0,0,1-2.467,2.467H15.1v-7.4H12.635v7.4Z" transform="translate(-4 -3.5)"/>
</svg>
