<svg xmlns="http://www.w3.org/2000/svg" width="16.735" height="16.735" viewBox="0 0 16.735 16.735">
  <path id="Path_3007" data-name="Path 3007" d="M14.945,17.434l2.908-2.887-.879-.879-2.029,1.987-.816-.816-.879.9ZM5.51,8.021H15.552V6.347H5.51ZM15.552,19.735a4.178,4.178,0,0,1-4.184-4.184,4.178,4.178,0,0,1,4.184-4.184,4.177,4.177,0,0,1,4.184,4.184,4.177,4.177,0,0,1-4.184,4.184ZM3,18.9V4.674A1.677,1.677,0,0,1,4.674,3H16.388a1.677,1.677,0,0,1,1.674,1.674v5.585a5.792,5.792,0,0,0-.816-.314,5.868,5.868,0,0,0-.858-.188V4.674H4.674V16.43H9.757a6.4,6.4,0,0,0,.325,1.234,5.221,5.221,0,0,0,.575,1.109l-.126.126L9.276,17.643,8.021,18.9,6.765,17.643,5.51,18.9,4.255,17.643Zm2.51-4.184H9.757a5.868,5.868,0,0,1,.188-.858,5.792,5.792,0,0,1,.314-.816H5.51Zm0-3.347h5.941A6,6,0,0,1,13.3,10.143a5.688,5.688,0,0,1,2.249-.449H5.51ZM4.674,16.43v0Z" transform="translate(-3 -3)" fill="#fff"/>
</svg>
