<svg xmlns="http://www.w3.org/2000/svg" width="23.996" height="18" viewBox="0 0 23.996 18">
  <path id="Path_2985" data-name="Path 2985" d="M18.25,16.5a.75.75,0,0,0,0,1.5h3.5a.75.75,0,0,0,0-1.5ZM2,8.75A3.75,3.75,0,0,1,5.754,5h16.5A3.75,3.75,0,0,1,26,8.75v10.5A3.75,3.75,0,0,1,22.25,23H5.755A3.75,3.75,0,0,1,2,19.25V8.75ZM5.754,6.5A2.25,2.25,0,0,0,3.5,8.75V9.5h21V8.75A2.25,2.25,0,0,0,22.25,6.5H5.754ZM3.5,19.25a2.25,2.25,0,0,0,2.25,2.25h16.5a2.25,2.25,0,0,0,2.25-2.25V11H3.5v8.25Z" transform="translate(-2.004 -5)" fill="#c20000"/>
</svg>
