<svg xmlns="http://www.w3.org/2000/svg" width="19.417" height="16.181" viewBox="0 0 19.417 16.181">
  <path id="Path_2948" data-name="Path 2948" d="M4.618,14.209a1.618,1.618,0,1,1,0-3.236,1.618,1.618,0,1,1,0,3.236Zm0-6.472A1.613,1.613,0,0,1,3,6.118,1.613,1.613,0,0,1,4.618,4.5,1.613,1.613,0,0,1,6.236,6.118,1.613,1.613,0,0,1,4.618,7.736Zm0,12.945a1.618,1.618,0,1,1,0-3.236,1.618,1.618,0,1,1,0,3.236Zm4.854-.539a1.079,1.079,0,1,1,0-2.157H21.339a1.079,1.079,0,1,1,0,2.157Zm0-6.472a1.079,1.079,0,1,1,0-2.157H21.339a1.079,1.079,0,1,1,0,2.157Zm0-6.472A1.059,1.059,0,0,1,8.394,6.118,1.059,1.059,0,0,1,9.472,5.039H21.339a1.059,1.059,0,0,1,1.079,1.079A1.059,1.059,0,0,1,21.339,7.2Z" transform="translate(-3 -4.5)" fill="#c20000"/>
</svg>
