<svg xmlns="http://www.w3.org/2000/svg" width="19.982" height="20" viewBox="0 0 19.982 20">
  <path id="Path_521" data-name="Path 521" d="M7,22a2,2,0,1,1,1.412-3.413A2,2,0,0,1,7,22Zm10,0a2,2,0,1,1,1.413-.587A1.925,1.925,0,0,1,17,22ZM6.15,6l2.4,5h7L18.3,6ZM5.2,4H19.95a.957.957,0,0,1,.875.512A1.009,1.009,0,0,1,20.85,5.55l-3.55,6.4a2,2,0,0,1-.738.775A1.943,1.943,0,0,1,15.55,13H8.1L7,15H19v2H7a1.851,1.851,0,0,1-1.7-.988,1.889,1.889,0,0,1-.05-1.962L6.6,11.6,3,4H1V2H4.25Zm3.35,7h0Z" transform="translate(-1 -2)" fill="#fff"/>
</svg>
