<svg xmlns="http://www.w3.org/2000/svg" width="18.35" height="16" viewBox="0 0 18.35 16">
  <path id="Path_3020" data-name="Path 3020" d="M5,6A.981.981,0,0,1,4,5,.981.981,0,0,1,5,4H19a.982.982,0,0,1,1,1,.982.982,0,0,1-1,1ZM5,20a.982.982,0,0,1-1-1V14H3.825a.959.959,0,0,1-.775-.363.943.943,0,0,1-.2-.837l1-5a.99.99,0,0,1,.35-.575A.96.96,0,0,1,4.825,7h14.35a.96.96,0,0,1,.625.225.99.99,0,0,1,.35.575l1,5a.944.944,0,0,1-.2.837.959.959,0,0,1-.775.363H20v5a1,1,0,1,1-2,0V14H14v5a.982.982,0,0,1-1,1Zm1-2h6V14H6Zm-.95-6h0Zm0,0h13.9l-.6-3H5.65Z" transform="translate(-2.825 -4)" fill="#fff"/>
</svg>
