<svg xmlns="http://www.w3.org/2000/svg" width="19.2" height="15.052" viewBox="0 0 19.2 15.052">
  <path id="Path_3003" data-name="Path 3003" d="M21.145,13.276l-2.057-4.8a.686.686,0,0,0-.631-.418H16.4V6.686A.686.686,0,0,0,15.714,6H2.686A.686.686,0,0,0,2,6.686V18.343a.686.686,0,0,0,.686.686H4.153a2.743,2.743,0,0,0,5.294,0h4.306a2.743,2.743,0,0,0,5.294,0h1.467a.686.686,0,0,0,.686-.686v-4.8A.687.687,0,0,0,21.145,13.276ZM16.4,9.429H18l1.467,3.429H16.4ZM6.8,19.714a1.371,1.371,0,1,1,.97-.4A1.371,1.371,0,0,1,6.8,19.714Zm6.953-2.057H9.447a2.743,2.743,0,0,0-5.294,0H3.371V7.371H15.029v8.613a2.743,2.743,0,0,0-1.275,1.673ZM16.4,19.714a1.371,1.371,0,1,1,.97-.4A1.371,1.371,0,0,1,16.4,19.714Zm3.429-2.057h-.782A2.743,2.743,0,0,0,16.4,15.6V14.229h3.429Z" transform="translate(-2 -6)" fill="#fff"/>
</svg>
