<svg xmlns="http://www.w3.org/2000/svg" xmlns:xlink="http://www.w3.org/1999/xlink" width="20.351" height="20.332" viewBox="0 0 20.351 20.332">
  <defs>
    <linearGradient id="linear-gradient" x1="0.5" x2="0.5" y2="1" gradientUnits="objectBoundingBox">
      <stop offset="0" stop-color="#d41d1d"/>
      <stop offset="1" stop-color="#340303"/>
    </linearGradient>
  </defs>
  <path id="Path_2829" data-name="Path 2829" d="M30.221-494.666a1.118,1.118,0,0,0-.743.572.9.9,0,0,0-.094.491.946.946,0,0,0,.346.811c.324.282.282.278,2.276.29l1.814.013-2,2-2,2-.389-.256a8.019,8.019,0,0,0-6.916-.914,7.827,7.827,0,0,0-5.281,6.648A9.665,9.665,0,0,0,17.3-480.9a7.682,7.682,0,0,0,2.2,4.248,7.7,7.7,0,0,0,4.269,2.2,10.736,10.736,0,0,0,2.455.021,7.967,7.967,0,0,0,4.662-2.481,7.939,7.939,0,0,0,1.874-6.938,7.985,7.985,0,0,0-1.148-2.715l-.278-.41,2-2,2-2,.013,1.836c.013,2.019.009,1.972.29,2.3a1.1,1.1,0,0,0,1.8-.265l.1-.2.013-3.176c.009-2.152,0-3.249-.034-3.4a.965.965,0,0,0-.546-.692l-.243-.12-3.159-.009C31.83-494.7,30.323-494.687,30.221-494.666Zm-4.274,6.805a5.883,5.883,0,0,1,2.485,1,6.864,6.864,0,0,1,1.392,1.422,5.735,5.735,0,0,1-.628,7.2,5.633,5.633,0,0,1-4.1,1.721,5.622,5.622,0,0,1-3.181-.956,7.448,7.448,0,0,1-1.554-1.554,5.6,5.6,0,0,1-.956-3.223,5.4,5.4,0,0,1,.623-2.579,5.754,5.754,0,0,1,4.086-3.014c.175-.026.35-.055.384-.064A7.837,7.837,0,0,1,25.947-487.86Z" transform="translate(-17.204 494.7)" fill="url(#linear-gradient)"/>
</svg>
