<?xml version="1.0" standalone="no"?>
<!DOCTYPE svg PUBLIC "-//W3C//DTD SVG 20010904//EN"
 "http://www.w3.org/TR/2001/REC-SVG-20010904/DTD/svg10.dtd">
<svg version="1.0" xmlns="http://www.w3.org/2000/svg"
 width="50.000000pt" height="50.000000pt" viewBox="0 0 50.000000 50.000000"
 preserveAspectRatio="xMidYMid meet">

<g transform="translate(0.000000,50.000000) scale(0.100000,-0.100000)"
fill="#000000" stroke="none">
<path d="M120 440 c-15 -27 1 -54 50 -85 64 -40 60 -45 -44 -45 l-96 0 0 -130
0 -130 220 0 220 0 0 130 0 129 -82 3 c-66 2 -83 6 -83 18 0 8 12 21 28 28 64
31 70 102 8 102 -29 0 -46 -14 -66 -53 -15 -31 -42 -33 -50 -5 -18 56 -82 80
-105 38z m72 -7 c10 -9 18 -21 18 -27 0 -6 36 -47 80 -91 57 -57 80 -87 80
-105 0 -22 -10 -15 -83 58 -46 45 -98 90 -117 100 -35 17 -47 40 -36 68 7 19
35 18 58 -3z m175 1 c8 -20 -7 -45 -34 -59 -12 -6 -27 -16 -36 -23 -11 -10
-17 -9 -26 2 -9 10 -8 16 4 26 8 7 15 17 15 23 0 18 32 47 52 47 10 0 21 -7
25 -16z m-283 -158 c-9 -24 -34 -28 -34 -6 0 13 7 20 20 20 13 0 17 -5 14 -14z
m366 -6 c0 -22 -25 -18 -34 6 -3 9 1 14 14 14 13 0 20 -7 20 -20z m-210 -25
c0 -8 5 -15 10 -15 6 0 10 7 10 15 0 21 10 19 37 -7 30 -28 32 -89 3 -118 -24
-24 -40 -26 -40 -5 0 8 -4 15 -10 15 -5 0 -10 -7 -10 -15 0 -21 -16 -19 -40 5
-27 27 -27 93 0 120 24 24 40 26 40 5z m-156 -161 c3 -9 -1 -14 -14 -14 -13 0
-20 7 -20 20 0 22 25 18 34 -6z m363 -11 c-3 -2 -13 -3 -23 -1 -16 3 -16 4 2
22 18 18 19 18 22 2 2 -10 1 -20 -1 -23z"/>
<path d="M162 411 c4 -13 18 -16 19 -4 0 4 -5 9 -11 12 -7 2 -11 -2 -8 -8z"/>
<path d="M320 404 c0 -8 5 -12 10 -9 6 3 10 10 10 16 0 5 -4 9 -10 9 -5 0 -10
-7 -10 -16z"/>
<path d="M240 180 c0 -16 5 -30 10 -30 6 0 10 14 10 30 0 17 -4 30 -10 30 -5
0 -10 -13 -10 -30z"/>
</g>
</svg>
