<svg xmlns="http://www.w3.org/2000/svg" width="28.61" height="25.75" viewBox="0 0 28.61 25.75">
  <path id="Union_5" data-name="Union 5" d="M13.467,3.64l.024-.04a1.881,1.881,0,1,1,1.5.011l.019.03L14.5,25.75Zm.426,18.915c-1.972-.1-3.459-.878-3.459-1.809,0-.892,1.419-1.666,3.3-1.8l.024.537c-1.3.106-2.241.569-2.241,1.1,0,.552.984,1.018,2.338,1.108l.038.86h0Zm1.247-.03v0l.024-.867c1.167-.149,1.95-.579,1.95-1.071s-.76-.907-1.893-1.064l.015-.544c1.744.2,2.961.927,2.961,1.768s-1.285,1.6-3.057,1.779ZM13.7,18.181a8.075,8.075,0,0,1-2.73-.587,3.178,3.178,0,0,1-1.014-.656,1.053,1.053,0,0,1,0-1.606,3.182,3.182,0,0,1,1.014-.655,7.958,7.958,0,0,1,2.551-.575l.027.611c-1.532.131-2.643.653-2.643,1.24,0,.607,1.158,1.133,2.753,1.25l.043.976h0Zm1.56-.023h0l.026-.982c1.438-.159,2.442-.661,2.442-1.221s-.954-1.043-2.375-1.213l.017-.616a7.752,7.752,0,0,1,2.292.553,3.162,3.162,0,0,1,1.014.655,1.053,1.053,0,0,1,0,1.606,3.157,3.157,0,0,1-1.014.656,7.8,7.8,0,0,1-2.4.563ZM13.5,13.685a9.569,9.569,0,0,1-2.875-.58,3.519,3.519,0,0,1-1.118-.655,1.11,1.11,0,0,1-.41-.8,1.11,1.11,0,0,1,.41-.8,3.57,3.57,0,0,1,1.118-.656,9.4,9.4,0,0,1,2.7-.566l.027.612c-1.646.148-2.8.653-2.8,1.23,0,.6,1.194,1.106,2.9,1.241l.043.978h0Zm1.88-.018h0l.026-.981c1.572-.162,2.668-.663,2.668-1.22s-1.045-1.04-2.6-1.211l.017-.616A9.252,9.252,0,0,1,18,10.188a3.557,3.557,0,0,1,1.118.656,1.106,1.106,0,0,1,.41.8,1.106,1.106,0,0,1-.41.8A3.506,3.506,0,0,1,18,13.1a9.337,9.337,0,0,1-2.622.562Zm3.8-5.206a3.309,3.309,0,0,0-3.866.184c-.03-.006,0-3.094,0-3.094a3.012,3.012,0,0,0,1.578-1.273c-.031,0-1.15-2.749.819-2.749S25.09,5.047,28.608,3.883c.049-.024-.582,3.129-8.59,5.119h0C19.992,9,19.678,8.731,19.184,8.461ZM8.592,9C.585,7.012-.046,3.858,0,3.883,3.521,5.047,8.928,1.528,10.9,1.528s.85,2.749.819,2.749A3.012,3.012,0,0,0,13.294,5.55s.03,3.088,0,3.094a3.311,3.311,0,0,0-3.867-.184A9.688,9.688,0,0,0,8.593,9Z" transform="translate(0)" fill="#727398"/>
</svg>
